  0
SECTION
  2
HEADER
  9
$ANGBASE
  50
0.0
  9
$ANGDIR
  70
1
  9
$MEASUREMENT
  70
0
  0
ENDSEC
  0
SECTION
  2
TABLES
  0
TABLE
  2
LTYPE
  70
4
  0
LTYPE
  5
40F
  2
CONTINUOUS
  70
0
  3
Solid line
  72
65
  73
0
  40
0.0
  0
LTYPE
  5
410
  2
DASHDOT
 70
0
  3
Dash Dot ____ _ ____ _
 72
65
 73
4
 40
2.0
 49
1.25
 49
-0.25
 49
0.25
 49
-0.25
  0
LTYPE
  5
411
  2
DASHED
 70
0
  3
Dashed __ __ __ __ __
 72
65
 73
2
 40
0.75
 49
0.5
 49
-0.25
  0
LTYPE
  5
43B
  2
DOTTED
 70
0
  3
Dotted .  .  .  .
 72
65
 73
2
 40
0.2
 49
0.0
 49
-0.2
  0
ENDTAB
  0
TABLE
  2
STYLE
  70
4
  0
STYLE
  2
KICAD
  70
0
  40
0
  41
1
  42
1
  50
0
  71
0
  3
isocp.shx
  0
STYLE
  2
KICADB
  70
0
  40
0
  41
1
  42
1
  50
0
  71
0
  3
isocp.shx
  0
STYLE
  2
KICADI
  70
0
  40
0
  41
1
  42
1
  50
15
  71
0
  3
isocp.shx
  0
STYLE
  2
KICADBI
  70
0
  40
0
  41
1
  42
1
  50
15
  71
0
  3
isocp.shx
  0
ENDTAB
  0
TABLE
  2
LAYER
  70
1
  0
LAYER
  2
BLACK
  70
0
  62
7
  6
CONTINUOUS
  0
ENDTAB
  0
ENDSEC
  0
SECTION
  2
ENTITIES
0
LINE
8
BLACK
6
CONTINUOUS
10
3.9373845275590549
20
4.2528778346456688
11
3.9379172047244095
21
4.2523451574803151
0
LINE
8
BLACK
6
CONTINUOUS
10
3.9379172047244095
20
4.2523451574803151
11
3.9379921259842519
21
4.2519685039370074
0
LINE
8
BLACK
6
CONTINUOUS
10
3.9379921259842519
20
4.2519685039370074
11
3.9379921259842519
21
0.
0
LINE
8
BLACK
6
CONTINUOUS
10
3.9379921259842519
20
0.
11
3.9379172047244095
21
-0.0003766535433071
0
LINE
8
BLACK
6
CONTINUOUS
10
3.9379172047244095
20
-0.0003766535433071
11
3.9373845275590549
21
-0.0009093307086614
0
LINE
8
BLACK
6
CONTINUOUS
10
3.9373845275590549
20
-0.0009093307086614
11
3.9370078740157481
21
-0.0009842519685039
0
LINE
8
BLACK
6
CONTINUOUS
10
3.9370078740157481
20
-0.0009842519685039
11
0.
21
-0.0009842519685039
0
LINE
8
BLACK
6
CONTINUOUS
10
0.
20
-0.0009842519685039
11
-0.0003766535433071
21
-0.0009093307086614
0
LINE
8
BLACK
6
CONTINUOUS
10
-0.0003766535433071
20
-0.0009093307086614
11
-0.0009093307086614
21
-0.0003766535433071
0
LINE
8
BLACK
6
CONTINUOUS
10
-0.0009093307086614
20
-0.0003766535433071
11
-0.0009842519685039
21
0.
0
LINE
8
BLACK
6
CONTINUOUS
10
-0.0009842519685039
20
0.
11
-0.0009842519685039
21
4.2519685039370074
0
LINE
8
BLACK
6
CONTINUOUS
10
-0.0009842519685039
20
4.2519685039370074
11
-0.0009093307086614
21
4.2523451574803151
0
LINE
8
BLACK
6
CONTINUOUS
10
-0.0009093307086614
20
4.2523451574803151
11
-0.0003766535433071
21
4.2528778346456688
0
LINE
8
BLACK
6
CONTINUOUS
10
-0.0003766535433071
20
4.2528778346456688
11
0.
21
4.252952755905512
0
LINE
8
BLACK
6
CONTINUOUS
10
0.
20
4.252952755905512
11
3.9370078740157481
21
4.252952755905512
0
LINE
8
BLACK
6
CONTINUOUS
10
3.9370078740157481
20
4.252952755905512
11
3.9373845275590549
21
4.2528778346456688
0
LINE
8
BLACK
6
CONTINUOUS
10
0.0009842519685039
20
4.2509842519685037
11
0.0009842519685039
21
0.0009842519685039
0
LINE
8
BLACK
6
CONTINUOUS
10
0.0009842519685039
20
0.0009842519685039
11
3.936023622047244
21
0.0009842519685039
0
LINE
8
BLACK
6
CONTINUOUS
10
3.936023622047244
20
0.0009842519685039
11
3.936023622047244
21
4.2509842519685037
0
LINE
8
BLACK
6
CONTINUOUS
10
3.936023622047244
20
4.2509842519685037
11
0.0009842519685039
21
4.2509842519685037
0
CIRCLE
8
BLACK
10
3.1075590551181103
20
3.3763779527559055
40
0.026
0
CIRCLE
8
BLACK
10
2.9107086614173228
20
3.3763779527559055
40
0.026
0
CIRCLE
8
BLACK
10
2.0275590551181102
20
3.5763779527559056
40
0.026
0
CIRCLE
8
BLACK
10
1.8307086614173227
20
3.5763779527559056
40
0.026
0
CIRCLE
8
BLACK
10
0.5875590551181102
20
3.1763779527559053
40
0.026
0
CIRCLE
8
BLACK
10
0.3907086614173228
20
3.1763779527559053
40
0.026
0
CIRCLE
8
BLACK
10
3.7649606299212599
20
0.1594488188976378
40
0.062992125984252
0
CIRCLE
8
BLACK
10
1.3075590551181102
20
3.9763779527559056
40
0.026
0
CIRCLE
8
BLACK
10
1.1107086614173227
20
3.9763779527559056
40
0.026
0
LINE
8
BLACK
6
CONTINUOUS
10
3.2501705118110236
20
1.8948511811023621
11
3.2551694488188976
21
1.893856811023622
0
LINE
8
BLACK
6
CONTINUOUS
10
3.2551694488188976
20
1.893856811023622
11
3.2598783464566927
21
1.8919063385826771
0
LINE
8
BLACK
6
CONTINUOUS
10
3.2598783464566927
20
1.8919063385826771
11
3.2641162598425195
21
1.8890746456692913
0
LINE
8
BLACK
6
CONTINUOUS
10
3.2641162598425195
20
1.8890746456692913
11
3.2677203149606298
21
1.885470590551181
0
LINE
8
BLACK
6
CONTINUOUS
10
3.2677203149606298
20
1.885470590551181
11
3.2705520078740156
21
1.8812326771653543
0
LINE
8
BLACK
6
CONTINUOUS
10
3.2705520078740156
20
1.8812326771653543
11
3.2725024803149605
21
1.8765237795275591
0
LINE
8
BLACK
6
CONTINUOUS
10
3.2725024803149605
20
1.8765237795275591
11
3.2734968503937005
21
1.8715248425196851
0
LINE
8
BLACK
6
CONTINUOUS
10
3.2734968503937005
20
1.8715248425196851
11
3.2734968503937005
21
1.8664279133858268
0
LINE
8
BLACK
6
CONTINUOUS
10
3.2734968503937005
20
1.8664279133858268
11
3.2725024803149605
21
1.8614289763779528
0
LINE
8
BLACK
6
CONTINUOUS
10
3.2725024803149605
20
1.8614289763779528
11
3.2705520078740156
21
1.8567200787401574
0
LINE
8
BLACK
6
CONTINUOUS
10
3.2705520078740156
20
1.8567200787401574
11
3.2677203149606298
21
1.8524821653543306
0
LINE
8
BLACK
6
CONTINUOUS
10
3.2677203149606298
20
1.8524821653543306
11
3.2641162598425195
21
1.8488781102362204
0
LINE
8
BLACK
6
CONTINUOUS
10
3.2641162598425195
20
1.8488781102362204
11
3.2598783464566927
21
1.8460464173228346
0
LINE
8
BLACK
6
CONTINUOUS
10
3.2598783464566927
20
1.8460464173228346
11
3.2551694488188976
21
1.8440959448818897
0
LINE
8
BLACK
6
CONTINUOUS
10
3.2551694488188976
20
1.8440959448818897
11
3.2501705118110236
21
1.8431015748031496
0
LINE
8
BLACK
6
CONTINUOUS
10
3.2501705118110236
20
1.8431015748031496
11
3.2476220472440942
21
1.8429763779527559
0
LINE
8
BLACK
6
CONTINUOUS
10
3.2476220472440942
20
1.8429763779527559
11
3.2090708661417322
21
1.8429763779527559
0
LINE
8
BLACK
6
CONTINUOUS
10
3.2090708661417322
20
1.8429763779527559
11
3.2065224015748033
21
1.8431015748031496
0
LINE
8
BLACK
6
CONTINUOUS
10
3.2065224015748033
20
1.8431015748031496
11
3.2015234645669293
21
1.8440959448818897
0
LINE
8
BLACK
6
CONTINUOUS
10
3.2015234645669293
20
1.8440959448818897
11
3.1968145669291337
21
1.8460464173228346
0
LINE
8
BLACK
6
CONTINUOUS
10
3.1968145669291337
20
1.8460464173228346
11
3.1925766535433069
21
1.8488781102362204
0
LINE
8
BLACK
6
CONTINUOUS
10
3.1925766535433069
20
1.8488781102362204
11
3.1889725984251966
21
1.8524821653543306
0
LINE
8
BLACK
6
CONTINUOUS
10
3.1889725984251966
20
1.8524821653543306
11
3.1861409055118108
21
1.8567200787401574
0
LINE
8
BLACK
6
CONTINUOUS
10
3.1861409055118108
20
1.8567200787401574
11
3.1841904330708659
21
1.8614289763779528
0
LINE
8
BLACK
6
CONTINUOUS
10
3.1841904330708659
20
1.8614289763779528
11
3.1831960629921259
21
1.8664279133858268
0
LINE
8
BLACK
6
CONTINUOUS
10
3.1831960629921259
20
1.8664279133858268
11
3.1831960629921259
21
1.8715248425196851
0
LINE
8
BLACK
6
CONTINUOUS
10
3.1831960629921259
20
1.8715248425196851
11
3.1841904330708659
21
1.8765237795275591
0
LINE
8
BLACK
6
CONTINUOUS
10
3.1841904330708659
20
1.8765237795275591
11
3.1861409055118108
21
1.8812326771653543
0
LINE
8
BLACK
6
CONTINUOUS
10
3.1861409055118108
20
1.8812326771653543
11
3.1889725984251966
21
1.885470590551181
0
LINE
8
BLACK
6
CONTINUOUS
10
3.1889725984251966
20
1.885470590551181
11
3.1925766535433069
21
1.8890746456692913
0
LINE
8
BLACK
6
CONTINUOUS
10
3.1925766535433069
20
1.8890746456692913
11
3.1968145669291337
21
1.8919063385826771
0
LINE
8
BLACK
6
CONTINUOUS
10
3.1968145669291337
20
1.8919063385826771
11
3.2015234645669293
21
1.893856811023622
0
LINE
8
BLACK
6
CONTINUOUS
10
3.2015234645669293
20
1.893856811023622
11
3.2065224015748033
21
1.8948511811023621
0
LINE
8
BLACK
6
CONTINUOUS
10
3.2065224015748033
20
1.8948511811023621
11
3.2090708661417322
21
1.8949763779527558
0
LINE
8
BLACK
6
CONTINUOUS
10
3.2090708661417322
20
1.8949763779527558
11
3.2476220472440942
21
1.8949763779527558
0
LINE
8
BLACK
6
CONTINUOUS
10
3.2476220472440942
20
1.8949763779527558
11
3.2501705118110236
21
1.8948511811023621
0
LINE
8
BLACK
6
CONTINUOUS
10
3.0533201181102361
20
1.8948511811023621
11
3.0583190551181101
21
1.893856811023622
0
LINE
8
BLACK
6
CONTINUOUS
10
3.0583190551181101
20
1.893856811023622
11
3.0630279527559052
21
1.8919063385826771
0
LINE
8
BLACK
6
CONTINUOUS
10
3.0630279527559052
20
1.8919063385826771
11
3.067265866141732
21
1.8890746456692913
0
LINE
8
BLACK
6
CONTINUOUS
10
3.067265866141732
20
1.8890746456692913
11
3.0708699212598423
21
1.885470590551181
0
LINE
8
BLACK
6
CONTINUOUS
10
3.0708699212598423
20
1.885470590551181
11
3.0737016141732281
21
1.8812326771653543
0
LINE
8
BLACK
6
CONTINUOUS
10
3.0737016141732281
20
1.8812326771653543
11
3.075652086614173
21
1.8765237795275591
0
LINE
8
BLACK
6
CONTINUOUS
10
3.075652086614173
20
1.8765237795275591
11
3.0766464566929135
21
1.8715248425196851
0
LINE
8
BLACK
6
CONTINUOUS
10
3.0766464566929135
20
1.8715248425196851
11
3.0766464566929135
21
1.8664279133858268
0
LINE
8
BLACK
6
CONTINUOUS
10
3.0766464566929135
20
1.8664279133858268
11
3.075652086614173
21
1.8614289763779528
0
LINE
8
BLACK
6
CONTINUOUS
10
3.075652086614173
20
1.8614289763779528
11
3.0737016141732281
21
1.8567200787401574
0
LINE
8
BLACK
6
CONTINUOUS
10
3.0737016141732281
20
1.8567200787401574
11
3.0708699212598423
21
1.8524821653543306
0
LINE
8
BLACK
6
CONTINUOUS
10
3.0708699212598423
20
1.8524821653543306
11
3.067265866141732
21
1.8488781102362204
0
LINE
8
BLACK
6
CONTINUOUS
10
3.067265866141732
20
1.8488781102362204
11
3.0630279527559052
21
1.8460464173228346
0
LINE
8
BLACK
6
CONTINUOUS
10
3.0630279527559052
20
1.8460464173228346
11
3.0583190551181101
21
1.8440959448818897
0
LINE
8
BLACK
6
CONTINUOUS
10
3.0583190551181101
20
1.8440959448818897
11
3.0533201181102361
21
1.8431015748031496
0
LINE
8
BLACK
6
CONTINUOUS
10
3.0533201181102361
20
1.8431015748031496
11
3.0507716535433071
21
1.8429763779527559
0
LINE
8
BLACK
6
CONTINUOUS
10
3.0507716535433071
20
1.8429763779527559
11
3.0122204724409447
21
1.8429763779527559
0
LINE
8
BLACK
6
CONTINUOUS
10
3.0122204724409447
20
1.8429763779527559
11
3.0096720078740158
21
1.8431015748031496
0
LINE
8
BLACK
6
CONTINUOUS
10
3.0096720078740158
20
1.8431015748031496
11
3.0046730708661418
21
1.8440959448818897
0
LINE
8
BLACK
6
CONTINUOUS
10
3.0046730708661418
20
1.8440959448818897
11
2.9999641732283462
21
1.8460464173228346
0
LINE
8
BLACK
6
CONTINUOUS
10
2.9999641732283462
20
1.8460464173228346
11
2.9957262598425198
21
1.8488781102362204
0
LINE
8
BLACK
6
CONTINUOUS
10
2.9957262598425198
20
1.8488781102362204
11
2.9921222047244096
21
1.8524821653543306
0
LINE
8
BLACK
6
CONTINUOUS
10
2.9921222047244096
20
1.8524821653543306
11
2.9892905118110233
21
1.8567200787401574
0
LINE
8
BLACK
6
CONTINUOUS
10
2.9892905118110233
20
1.8567200787401574
11
2.9873400393700789
21
1.8614289763779528
0
LINE
8
BLACK
6
CONTINUOUS
10
2.9873400393700789
20
1.8614289763779528
11
2.9863456692913384
21
1.8664279133858268
0
LINE
8
BLACK
6
CONTINUOUS
10
2.9863456692913384
20
1.8664279133858268
11
2.9863456692913384
21
1.8715248425196851
0
LINE
8
BLACK
6
CONTINUOUS
10
2.9863456692913384
20
1.8715248425196851
11
2.9873400393700789
21
1.8765237795275591
0
LINE
8
BLACK
6
CONTINUOUS
10
2.9873400393700789
20
1.8765237795275591
11
2.9892905118110233
21
1.8812326771653543
0
LINE
8
BLACK
6
CONTINUOUS
10
2.9892905118110233
20
1.8812326771653543
11
2.9921222047244096
21
1.885470590551181
0
LINE
8
BLACK
6
CONTINUOUS
10
2.9921222047244096
20
1.885470590551181
11
2.9957262598425198
21
1.8890746456692913
0
LINE
8
BLACK
6
CONTINUOUS
10
2.9957262598425198
20
1.8890746456692913
11
2.9999641732283462
21
1.8919063385826771
0
LINE
8
BLACK
6
CONTINUOUS
10
2.9999641732283462
20
1.8919063385826771
11
3.0046730708661418
21
1.893856811023622
0
LINE
8
BLACK
6
CONTINUOUS
10
3.0046730708661418
20
1.893856811023622
11
3.0096720078740158
21
1.8948511811023621
0
LINE
8
BLACK
6
CONTINUOUS
10
3.0096720078740158
20
1.8948511811023621
11
3.0122204724409447
21
1.8949763779527558
0
LINE
8
BLACK
6
CONTINUOUS
10
3.0122204724409447
20
1.8949763779527558
11
3.0507716535433071
21
1.8949763779527558
0
LINE
8
BLACK
6
CONTINUOUS
10
3.0507716535433071
20
1.8949763779527558
11
3.0533201181102361
21
1.8948511811023621
0
LINE
8
BLACK
6
CONTINUOUS
10
2.8564697244094486
20
1.8948511811023621
11
2.8614686614173226
21
1.893856811023622
0
LINE
8
BLACK
6
CONTINUOUS
10
2.8614686614173226
20
1.893856811023622
11
2.8661775590551182
21
1.8919063385826771
0
LINE
8
BLACK
6
CONTINUOUS
10
2.8661775590551182
20
1.8919063385826771
11
2.870415472440945
21
1.8890746456692913
0
LINE
8
BLACK
6
CONTINUOUS
10
2.870415472440945
20
1.8890746456692913
11
2.8740195275590552
21
1.885470590551181
0
LINE
8
BLACK
6
CONTINUOUS
10
2.8740195275590552
20
1.885470590551181
11
2.876851220472441
21
1.8812326771653543
0
LINE
8
BLACK
6
CONTINUOUS
10
2.876851220472441
20
1.8812326771653543
11
2.8788016929133859
21
1.8765237795275591
0
LINE
8
BLACK
6
CONTINUOUS
10
2.8788016929133859
20
1.8765237795275591
11
2.879796062992126
21
1.8715248425196851
0
LINE
8
BLACK
6
CONTINUOUS
10
2.879796062992126
20
1.8715248425196851
11
2.879796062992126
21
1.8664279133858268
0
LINE
8
BLACK
6
CONTINUOUS
10
2.879796062992126
20
1.8664279133858268
11
2.8788016929133859
21
1.8614289763779528
0
LINE
8
BLACK
6
CONTINUOUS
10
2.8788016929133859
20
1.8614289763779528
11
2.876851220472441
21
1.8567200787401574
0
LINE
8
BLACK
6
CONTINUOUS
10
2.876851220472441
20
1.8567200787401574
11
2.8740195275590552
21
1.8524821653543306
0
LINE
8
BLACK
6
CONTINUOUS
10
2.8740195275590552
20
1.8524821653543306
11
2.870415472440945
21
1.8488781102362204
0
LINE
8
BLACK
6
CONTINUOUS
10
2.870415472440945
20
1.8488781102362204
11
2.8661775590551182
21
1.8460464173228346
0
LINE
8
BLACK
6
CONTINUOUS
10
2.8661775590551182
20
1.8460464173228346
11
2.8614686614173226
21
1.8440959448818897
0
LINE
8
BLACK
6
CONTINUOUS
10
2.8614686614173226
20
1.8440959448818897
11
2.8564697244094486
21
1.8431015748031496
0
LINE
8
BLACK
6
CONTINUOUS
10
2.8564697244094486
20
1.8431015748031496
11
2.8539212598425197
21
1.8429763779527559
0
LINE
8
BLACK
6
CONTINUOUS
10
2.8539212598425197
20
1.8429763779527559
11
2.8153700787401572
21
1.8429763779527559
0
LINE
8
BLACK
6
CONTINUOUS
10
2.8153700787401572
20
1.8429763779527559
11
2.8128216141732283
21
1.8431015748031496
0
LINE
8
BLACK
6
CONTINUOUS
10
2.8128216141732283
20
1.8431015748031496
11
2.8078226771653543
21
1.8440959448818897
0
LINE
8
BLACK
6
CONTINUOUS
10
2.8078226771653543
20
1.8440959448818897
11
2.8031137795275591
21
1.8460464173228346
0
LINE
8
BLACK
6
CONTINUOUS
10
2.8031137795275591
20
1.8460464173228346
11
2.7988758661417323
21
1.8488781102362204
0
LINE
8
BLACK
6
CONTINUOUS
10
2.7988758661417323
20
1.8488781102362204
11
2.7952718110236221
21
1.8524821653543306
0
LINE
8
BLACK
6
CONTINUOUS
10
2.7952718110236221
20
1.8524821653543306
11
2.7924401181102363
21
1.8567200787401574
0
LINE
8
BLACK
6
CONTINUOUS
10
2.7924401181102363
20
1.8567200787401574
11
2.7904896456692914
21
1.8614289763779528
0
LINE
8
BLACK
6
CONTINUOUS
10
2.7904896456692914
20
1.8614289763779528
11
2.7894952755905513
21
1.8664279133858268
0
LINE
8
BLACK
6
CONTINUOUS
10
2.7894952755905513
20
1.8664279133858268
11
2.7894952755905513
21
1.8715248425196851
0
LINE
8
BLACK
6
CONTINUOUS
10
2.7894952755905513
20
1.8715248425196851
11
2.7904896456692914
21
1.8765237795275591
0
LINE
8
BLACK
6
CONTINUOUS
10
2.7904896456692914
20
1.8765237795275591
11
2.7924401181102363
21
1.8812326771653543
0
LINE
8
BLACK
6
CONTINUOUS
10
2.7924401181102363
20
1.8812326771653543
11
2.7952718110236221
21
1.885470590551181
0
LINE
8
BLACK
6
CONTINUOUS
10
2.7952718110236221
20
1.885470590551181
11
2.7988758661417323
21
1.8890746456692913
0
LINE
8
BLACK
6
CONTINUOUS
10
2.7988758661417323
20
1.8890746456692913
11
2.8031137795275591
21
1.8919063385826771
0
LINE
8
BLACK
6
CONTINUOUS
10
2.8031137795275591
20
1.8919063385826771
11
2.8078226771653543
21
1.893856811023622
0
LINE
8
BLACK
6
CONTINUOUS
10
2.8078226771653543
20
1.893856811023622
11
2.8128216141732283
21
1.8948511811023621
0
LINE
8
BLACK
6
CONTINUOUS
10
2.8128216141732283
20
1.8948511811023621
11
2.8153700787401572
21
1.8949763779527558
0
LINE
8
BLACK
6
CONTINUOUS
10
2.8153700787401572
20
1.8949763779527558
11
2.8539212598425197
21
1.8949763779527558
0
LINE
8
BLACK
6
CONTINUOUS
10
2.8539212598425197
20
1.8949763779527558
11
2.8564697244094486
21
1.8948511811023621
0
LINE
8
BLACK
6
CONTINUOUS
10
2.1871783858267717
20
1.8948511811023621
11
2.1921773228346457
21
1.893856811023622
0
LINE
8
BLACK
6
CONTINUOUS
10
2.1921773228346457
20
1.893856811023622
11
2.1968862204724409
21
1.8919063385826771
0
LINE
8
BLACK
6
CONTINUOUS
10
2.1968862204724409
20
1.8919063385826771
11
2.2011241338582677
21
1.8890746456692913
0
LINE
8
BLACK
6
CONTINUOUS
10
2.2011241338582677
20
1.8890746456692913
11
2.2047281889763779
21
1.885470590551181
0
LINE
8
BLACK
6
CONTINUOUS
10
2.2047281889763779
20
1.885470590551181
11
2.2075598818897637
21
1.8812326771653543
0
LINE
8
BLACK
6
CONTINUOUS
10
2.2075598818897637
20
1.8812326771653543
11
2.2095103543307086
21
1.8765237795275591
0
LINE
8
BLACK
6
CONTINUOUS
10
2.2095103543307086
20
1.8765237795275591
11
2.2105047244094487
21
1.8715248425196851
0
LINE
8
BLACK
6
CONTINUOUS
10
2.2105047244094487
20
1.8715248425196851
11
2.2105047244094487
21
1.8664279133858268
0
LINE
8
BLACK
6
CONTINUOUS
10
2.2105047244094487
20
1.8664279133858268
11
2.2095103543307086
21
1.8614289763779528
0
LINE
8
BLACK
6
CONTINUOUS
10
2.2095103543307086
20
1.8614289763779528
11
2.2075598818897637
21
1.8567200787401574
0
LINE
8
BLACK
6
CONTINUOUS
10
2.2075598818897637
20
1.8567200787401574
11
2.2047281889763779
21
1.8524821653543306
0
LINE
8
BLACK
6
CONTINUOUS
10
2.2047281889763779
20
1.8524821653543306
11
2.2011241338582677
21
1.8488781102362204
0
LINE
8
BLACK
6
CONTINUOUS
10
2.2011241338582677
20
1.8488781102362204
11
2.1968862204724409
21
1.8460464173228346
0
LINE
8
BLACK
6
CONTINUOUS
10
2.1968862204724409
20
1.8460464173228346
11
2.1921773228346457
21
1.8440959448818897
0
LINE
8
BLACK
6
CONTINUOUS
10
2.1921773228346457
20
1.8440959448818897
11
2.1871783858267717
21
1.8431015748031496
0
LINE
8
BLACK
6
CONTINUOUS
10
2.1871783858267717
20
1.8431015748031496
11
2.1846299212598423
21
1.8429763779527559
0
LINE
8
BLACK
6
CONTINUOUS
10
2.1846299212598423
20
1.8429763779527559
11
2.1460787401574803
21
1.8429763779527559
0
LINE
8
BLACK
6
CONTINUOUS
10
2.1460787401574803
20
1.8429763779527559
11
2.143530275590551
21
1.8431015748031496
0
LINE
8
BLACK
6
CONTINUOUS
10
2.143530275590551
20
1.8431015748031496
11
2.138531338582677
21
1.8440959448818897
0
LINE
8
BLACK
6
CONTINUOUS
10
2.138531338582677
20
1.8440959448818897
11
2.1338224409448818
21
1.8460464173228346
0
LINE
8
BLACK
6
CONTINUOUS
10
2.1338224409448818
20
1.8460464173228346
11
2.129584527559055
21
1.8488781102362204
0
LINE
8
BLACK
6
CONTINUOUS
10
2.129584527559055
20
1.8488781102362204
11
2.1259804724409448
21
1.8524821653543306
0
LINE
8
BLACK
6
CONTINUOUS
10
2.1259804724409448
20
1.8524821653543306
11
2.123148779527559
21
1.8567200787401574
0
LINE
8
BLACK
6
CONTINUOUS
10
2.123148779527559
20
1.8567200787401574
11
2.1211983070866141
21
1.8614289763779528
0
LINE
8
BLACK
6
CONTINUOUS
10
2.1211983070866141
20
1.8614289763779528
11
2.120203937007874
21
1.8664279133858268
0
LINE
8
BLACK
6
CONTINUOUS
10
2.120203937007874
20
1.8664279133858268
11
2.120203937007874
21
1.8715248425196851
0
LINE
8
BLACK
6
CONTINUOUS
10
2.120203937007874
20
1.8715248425196851
11
2.1211983070866141
21
1.8765237795275591
0
LINE
8
BLACK
6
CONTINUOUS
10
2.1211983070866141
20
1.8765237795275591
11
2.123148779527559
21
1.8812326771653543
0
LINE
8
BLACK
6
CONTINUOUS
10
2.123148779527559
20
1.8812326771653543
11
2.1259804724409448
21
1.885470590551181
0
LINE
8
BLACK
6
CONTINUOUS
10
2.1259804724409448
20
1.885470590551181
11
2.129584527559055
21
1.8890746456692913
0
LINE
8
BLACK
6
CONTINUOUS
10
2.129584527559055
20
1.8890746456692913
11
2.1338224409448818
21
1.8919063385826771
0
LINE
8
BLACK
6
CONTINUOUS
10
2.1338224409448818
20
1.8919063385826771
11
2.138531338582677
21
1.893856811023622
0
LINE
8
BLACK
6
CONTINUOUS
10
2.138531338582677
20
1.893856811023622
11
2.143530275590551
21
1.8948511811023621
0
LINE
8
BLACK
6
CONTINUOUS
10
2.143530275590551
20
1.8948511811023621
11
2.1460787401574803
21
1.8949763779527558
0
LINE
8
BLACK
6
CONTINUOUS
10
2.1460787401574803
20
1.8949763779527558
11
2.1846299212598423
21
1.8949763779527558
0
LINE
8
BLACK
6
CONTINUOUS
10
2.1846299212598423
20
1.8949763779527558
11
2.1871783858267717
21
1.8948511811023621
0
LINE
8
BLACK
6
CONTINUOUS
10
1.9903279921259842
20
1.8948511811023621
11
1.9953269291338582
21
1.893856811023622
0
LINE
8
BLACK
6
CONTINUOUS
10
1.9953269291338582
20
1.893856811023622
11
2.0000358267716534
21
1.8919063385826771
0
LINE
8
BLACK
6
CONTINUOUS
10
2.0000358267716534
20
1.8919063385826771
11
2.0042737401574802
21
1.8890746456692913
0
LINE
8
BLACK
6
CONTINUOUS
10
2.0042737401574802
20
1.8890746456692913
11
2.0078777952755904
21
1.885470590551181
0
LINE
8
BLACK
6
CONTINUOUS
10
2.0078777952755904
20
1.885470590551181
11
2.0107094881889762
21
1.8812326771653543
0
LINE
8
BLACK
6
CONTINUOUS
10
2.0107094881889762
20
1.8812326771653543
11
2.0126599606299211
21
1.8765237795275591
0
LINE
8
BLACK
6
CONTINUOUS
10
2.0126599606299211
20
1.8765237795275591
11
2.0136543307086612
21
1.8715248425196851
0
LINE
8
BLACK
6
CONTINUOUS
10
2.0136543307086612
20
1.8715248425196851
11
2.0136543307086612
21
1.8664279133858268
0
LINE
8
BLACK
6
CONTINUOUS
10
2.0136543307086612
20
1.8664279133858268
11
2.0126599606299211
21
1.8614289763779528
0
LINE
8
BLACK
6
CONTINUOUS
10
2.0126599606299211
20
1.8614289763779528
11
2.0107094881889762
21
1.8567200787401574
0
LINE
8
BLACK
6
CONTINUOUS
10
2.0107094881889762
20
1.8567200787401574
11
2.0078777952755904
21
1.8524821653543306
0
LINE
8
BLACK
6
CONTINUOUS
10
2.0078777952755904
20
1.8524821653543306
11
2.0042737401574802
21
1.8488781102362204
0
LINE
8
BLACK
6
CONTINUOUS
10
2.0042737401574802
20
1.8488781102362204
11
2.0000358267716534
21
1.8460464173228346
0
LINE
8
BLACK
6
CONTINUOUS
10
2.0000358267716534
20
1.8460464173228346
11
1.9953269291338582
21
1.8440959448818897
0
LINE
8
BLACK
6
CONTINUOUS
10
1.9953269291338582
20
1.8440959448818897
11
1.9903279921259842
21
1.8431015748031496
0
LINE
8
BLACK
6
CONTINUOUS
10
1.9903279921259842
20
1.8431015748031496
11
1.9877795275590551
21
1.8429763779527559
0
LINE
8
BLACK
6
CONTINUOUS
10
1.9877795275590551
20
1.8429763779527559
11
1.9492283464566929
21
1.8429763779527559
0
LINE
8
BLACK
6
CONTINUOUS
10
1.9492283464566929
20
1.8429763779527559
11
1.9466798818897637
21
1.8431015748031496
0
LINE
8
BLACK
6
CONTINUOUS
10
1.9466798818897637
20
1.8431015748031496
11
1.9416809448818897
21
1.8440959448818897
0
LINE
8
BLACK
6
CONTINUOUS
10
1.9416809448818897
20
1.8440959448818897
11
1.9369720472440946
21
1.8460464173228346
0
LINE
8
BLACK
6
CONTINUOUS
10
1.9369720472440946
20
1.8460464173228346
11
1.9327341338582678
21
1.8488781102362204
0
LINE
8
BLACK
6
CONTINUOUS
10
1.9327341338582678
20
1.8488781102362204
11
1.9291300787401575
21
1.8524821653543306
0
LINE
8
BLACK
6
CONTINUOUS
10
1.9291300787401575
20
1.8524821653543306
11
1.9262983858267717
21
1.8567200787401574
0
LINE
8
BLACK
6
CONTINUOUS
10
1.9262983858267717
20
1.8567200787401574
11
1.9243479133858268
21
1.8614289763779528
0
LINE
8
BLACK
6
CONTINUOUS
10
1.9243479133858268
20
1.8614289763779528
11
1.9233535433070865
21
1.8664279133858268
0
LINE
8
BLACK
6
CONTINUOUS
10
1.9233535433070865
20
1.8664279133858268
11
1.9233535433070865
21
1.8715248425196851
0
LINE
8
BLACK
6
CONTINUOUS
10
1.9233535433070865
20
1.8715248425196851
11
1.9243479133858268
21
1.8765237795275591
0
LINE
8
BLACK
6
CONTINUOUS
10
1.9243479133858268
20
1.8765237795275591
11
1.9262983858267717
21
1.8812326771653543
0
LINE
8
BLACK
6
CONTINUOUS
10
1.9262983858267717
20
1.8812326771653543
11
1.9291300787401575
21
1.885470590551181
0
LINE
8
BLACK
6
CONTINUOUS
10
1.9291300787401575
20
1.885470590551181
11
1.9327341338582678
21
1.8890746456692913
0
LINE
8
BLACK
6
CONTINUOUS
10
1.9327341338582678
20
1.8890746456692913
11
1.9369720472440946
21
1.8919063385826771
0
LINE
8
BLACK
6
CONTINUOUS
10
1.9369720472440946
20
1.8919063385826771
11
1.9416809448818897
21
1.893856811023622
0
LINE
8
BLACK
6
CONTINUOUS
10
1.9416809448818897
20
1.893856811023622
11
1.9466798818897637
21
1.8948511811023621
0
LINE
8
BLACK
6
CONTINUOUS
10
1.9466798818897637
20
1.8948511811023621
11
1.9492283464566929
21
1.8949763779527558
0
LINE
8
BLACK
6
CONTINUOUS
10
1.9492283464566929
20
1.8949763779527558
11
1.9877795275590551
21
1.8949763779527558
0
LINE
8
BLACK
6
CONTINUOUS
10
1.9877795275590551
20
1.8949763779527558
11
1.9903279921259842
21
1.8948511811023621
0
LINE
8
BLACK
6
CONTINUOUS
10
1.7934775984251967
20
1.8948511811023621
11
1.7984765354330707
21
1.893856811023622
0
LINE
8
BLACK
6
CONTINUOUS
10
1.7984765354330707
20
1.893856811023622
11
1.8031854330708661
21
1.8919063385826771
0
LINE
8
BLACK
6
CONTINUOUS
10
1.8031854330708661
20
1.8919063385826771
11
1.8074233464566929
21
1.8890746456692913
0
LINE
8
BLACK
6
CONTINUOUS
10
1.8074233464566929
20
1.8890746456692913
11
1.8110274015748031
21
1.885470590551181
0
LINE
8
BLACK
6
CONTINUOUS
10
1.8110274015748031
20
1.885470590551181
11
1.8138590944881889
21
1.8812326771653543
0
LINE
8
BLACK
6
CONTINUOUS
10
1.8138590944881889
20
1.8812326771653543
11
1.8158095669291339
21
1.8765237795275591
0
LINE
8
BLACK
6
CONTINUOUS
10
1.8158095669291339
20
1.8765237795275591
11
1.8168039370078739
21
1.8715248425196851
0
LINE
8
BLACK
6
CONTINUOUS
10
1.8168039370078739
20
1.8715248425196851
11
1.8168039370078739
21
1.8664279133858268
0
LINE
8
BLACK
6
CONTINUOUS
10
1.8168039370078739
20
1.8664279133858268
11
1.8158095669291339
21
1.8614289763779528
0
LINE
8
BLACK
6
CONTINUOUS
10
1.8158095669291339
20
1.8614289763779528
11
1.8138590944881889
21
1.8567200787401574
0
LINE
8
BLACK
6
CONTINUOUS
10
1.8138590944881889
20
1.8567200787401574
11
1.8110274015748031
21
1.8524821653543306
0
LINE
8
BLACK
6
CONTINUOUS
10
1.8110274015748031
20
1.8524821653543306
11
1.8074233464566929
21
1.8488781102362204
0
LINE
8
BLACK
6
CONTINUOUS
10
1.8074233464566929
20
1.8488781102362204
11
1.8031854330708661
21
1.8460464173228346
0
LINE
8
BLACK
6
CONTINUOUS
10
1.8031854330708661
20
1.8460464173228346
11
1.7984765354330707
21
1.8440959448818897
0
LINE
8
BLACK
6
CONTINUOUS
10
1.7984765354330707
20
1.8440959448818897
11
1.7934775984251967
21
1.8431015748031496
0
LINE
8
BLACK
6
CONTINUOUS
10
1.7934775984251967
20
1.8431015748031496
11
1.7909291338582676
21
1.8429763779527559
0
LINE
8
BLACK
6
CONTINUOUS
10
1.7909291338582676
20
1.8429763779527559
11
1.7523779527559056
21
1.8429763779527559
0
LINE
8
BLACK
6
CONTINUOUS
10
1.7523779527559056
20
1.8429763779527559
11
1.7498294881889764
21
1.8431015748031496
0
LINE
8
BLACK
6
CONTINUOUS
10
1.7498294881889764
20
1.8431015748031496
11
1.7448305511811024
21
1.8440959448818897
0
LINE
8
BLACK
6
CONTINUOUS
10
1.7448305511811024
20
1.8440959448818897
11
1.7401216535433071
21
1.8460464173228346
0
LINE
8
BLACK
6
CONTINUOUS
10
1.7401216535433071
20
1.8460464173228346
11
1.7358837401574803
21
1.8488781102362204
0
LINE
8
BLACK
6
CONTINUOUS
10
1.7358837401574803
20
1.8488781102362204
11
1.73227968503937
21
1.8524821653543306
0
LINE
8
BLACK
6
CONTINUOUS
10
1.73227968503937
20
1.8524821653543306
11
1.7294479921259842
21
1.8567200787401574
0
LINE
8
BLACK
6
CONTINUOUS
10
1.7294479921259842
20
1.8567200787401574
11
1.7274975196850393
21
1.8614289763779528
0
LINE
8
BLACK
6
CONTINUOUS
10
1.7274975196850393
20
1.8614289763779528
11
1.7265031496062992
21
1.8664279133858268
0
LINE
8
BLACK
6
CONTINUOUS
10
1.7265031496062992
20
1.8664279133858268
11
1.7265031496062992
21
1.8715248425196851
0
LINE
8
BLACK
6
CONTINUOUS
10
1.7265031496062992
20
1.8715248425196851
11
1.7274975196850393
21
1.8765237795275591
0
LINE
8
BLACK
6
CONTINUOUS
10
1.7274975196850393
20
1.8765237795275591
11
1.7294479921259842
21
1.8812326771653543
0
LINE
8
BLACK
6
CONTINUOUS
10
1.7294479921259842
20
1.8812326771653543
11
1.73227968503937
21
1.885470590551181
0
LINE
8
BLACK
6
CONTINUOUS
10
1.73227968503937
20
1.885470590551181
11
1.7358837401574803
21
1.8890746456692913
0
LINE
8
BLACK
6
CONTINUOUS
10
1.7358837401574803
20
1.8890746456692913
11
1.7401216535433071
21
1.8919063385826771
0
LINE
8
BLACK
6
CONTINUOUS
10
1.7401216535433071
20
1.8919063385826771
11
1.7448305511811024
21
1.893856811023622
0
LINE
8
BLACK
6
CONTINUOUS
10
1.7448305511811024
20
1.893856811023622
11
1.7498294881889764
21
1.8948511811023621
0
LINE
8
BLACK
6
CONTINUOUS
10
1.7498294881889764
20
1.8948511811023621
11
1.7523779527559056
21
1.8949763779527558
0
LINE
8
BLACK
6
CONTINUOUS
10
1.7523779527559056
20
1.8949763779527558
11
1.7909291338582676
21
1.8949763779527558
0
LINE
8
BLACK
6
CONTINUOUS
10
1.7909291338582676
20
1.8949763779527558
11
1.7934775984251967
21
1.8948511811023621
0
CIRCLE
8
BLACK
10
1.3075590551181102
20
3.1763779527559053
40
0.026
0
CIRCLE
8
BLACK
10
1.1107086614173227
20
3.1763779527559053
40
0.026
0
CIRCLE
8
BLACK
10
2.3897637795275588
20
3.7755905511811023
40
0.026
0
CIRCLE
8
BLACK
10
2.1929133858267718
20
3.7755905511811023
40
0.026
0
CIRCLE
8
BLACK
10
2.7475590551181104
20
3.1763779527559053
40
0.026
0
CIRCLE
8
BLACK
10
2.5507086614173229
20
3.1763779527559053
40
0.026
0
CIRCLE
8
BLACK
10
3.4675590551181101
20
3.5763779527559056
40
0.026
0
CIRCLE
8
BLACK
10
3.2707086614173226
20
3.5763779527559056
40
0.026
0
CIRCLE
8
BLACK
10
0.1720472440944882
20
0.1594488188976378
40
0.062992125984252
0
CIRCLE
8
BLACK
10
1.6675590551181101
20
3.7763779527559054
40
0.026
0
CIRCLE
8
BLACK
10
1.4707086614173228
20
3.7763779527559054
40
0.026
0
LINE
8
BLACK
6
CONTINUOUS
10
1.2992996062992126
20
0.4368731496062992
11
1.303270590551181
21
0.4358091338582677
0
LINE
8
BLACK
6
CONTINUOUS
10
1.303270590551181
20
0.4358091338582677
11
1.306830905511811
21
0.4337535826771654
0
LINE
8
BLACK
6
CONTINUOUS
10
1.306830905511811
20
0.4337535826771654
11
1.3097378346456692
21
0.4308466535433071
0
LINE
8
BLACK
6
CONTINUOUS
10
1.3097378346456692
20
0.4308466535433071
11
1.3117933858267716
21
0.4272863385826772
0
LINE
8
BLACK
6
CONTINUOUS
10
1.3117933858267716
20
0.4272863385826772
11
1.3128574015748031
21
0.4233153543307087
0
LINE
8
BLACK
6
CONTINUOUS
10
1.3128574015748031
20
0.4233153543307087
11
1.3128574015748031
21
0.4192043307086614
0
LINE
8
BLACK
6
CONTINUOUS
10
1.3128574015748031
20
0.4192043307086614
11
1.3117933858267716
21
0.4152333464566929
0
LINE
8
BLACK
6
CONTINUOUS
10
1.3117933858267716
20
0.4152333464566929
11
1.3097378346456692
21
0.411673031496063
0
LINE
8
BLACK
6
CONTINUOUS
10
1.3097378346456692
20
0.411673031496063
11
1.306830905511811
21
0.4087661023622047
0
LINE
8
BLACK
6
CONTINUOUS
10
1.306830905511811
20
0.4087661023622047
11
1.303270590551181
21
0.4067105511811023
0
LINE
8
BLACK
6
CONTINUOUS
10
1.303270590551181
20
0.4067105511811023
11
1.2992996062992126
21
0.4056465354330708
0
LINE
8
BLACK
6
CONTINUOUS
10
1.2992996062992126
20
0.4056465354330708
11
1.2972440944881889
21
0.405511811023622
0
LINE
8
BLACK
6
CONTINUOUS
10
1.2972440944881889
20
0.405511811023622
11
1.2224409448818898
21
0.405511811023622
0
LINE
8
BLACK
6
CONTINUOUS
10
1.2224409448818898
20
0.405511811023622
11
1.2203854330708661
21
0.4056465354330708
0
LINE
8
BLACK
6
CONTINUOUS
10
1.2203854330708661
20
0.4056465354330708
11
1.2164144488188977
21
0.4067105511811023
0
LINE
8
BLACK
6
CONTINUOUS
10
1.2164144488188977
20
0.4067105511811023
11
1.2128541338582677
21
0.4087661023622047
0
LINE
8
BLACK
6
CONTINUOUS
10
1.2128541338582677
20
0.4087661023622047
11
1.2099472047244095
21
0.411673031496063
0
LINE
8
BLACK
6
CONTINUOUS
10
1.2099472047244095
20
0.411673031496063
11
1.2078916535433071
21
0.4152333464566929
0
LINE
8
BLACK
6
CONTINUOUS
10
1.2078916535433071
20
0.4152333464566929
11
1.2068276377952756
21
0.4192043307086614
0
LINE
8
BLACK
6
CONTINUOUS
10
1.2068276377952756
20
0.4192043307086614
11
1.2068276377952756
21
0.4233153543307087
0
LINE
8
BLACK
6
CONTINUOUS
10
1.2068276377952756
20
0.4233153543307087
11
1.2078916535433071
21
0.4272863385826772
0
LINE
8
BLACK
6
CONTINUOUS
10
1.2078916535433071
20
0.4272863385826772
11
1.2099472047244095
21
0.4308466535433071
0
LINE
8
BLACK
6
CONTINUOUS
10
1.2099472047244095
20
0.4308466535433071
11
1.2128541338582677
21
0.4337535826771654
0
LINE
8
BLACK
6
CONTINUOUS
10
1.2128541338582677
20
0.4337535826771654
11
1.2164144488188977
21
0.4358091338582677
0
LINE
8
BLACK
6
CONTINUOUS
10
1.2164144488188977
20
0.4358091338582677
11
1.2203854330708661
21
0.4368731496062992
0
LINE
8
BLACK
6
CONTINUOUS
10
1.2203854330708661
20
0.4368731496062992
11
1.2224409448818898
21
0.437007874015748
0
LINE
8
BLACK
6
CONTINUOUS
10
1.2224409448818898
20
0.437007874015748
11
1.2972440944881889
21
0.437007874015748
0
LINE
8
BLACK
6
CONTINUOUS
10
1.2972440944881889
20
0.437007874015748
11
1.2992996062992126
21
0.4368731496062992
0
LINE
8
BLACK
6
CONTINUOUS
10
1.2992996062992126
20
0.7597077952755905
11
1.303270590551181
21
0.758643779527559
0
LINE
8
BLACK
6
CONTINUOUS
10
1.303270590551181
20
0.758643779527559
11
1.306830905511811
21
0.7565882283464567
0
LINE
8
BLACK
6
CONTINUOUS
10
1.306830905511811
20
0.7565882283464567
11
1.3097378346456692
21
0.7536812992125984
0
LINE
8
BLACK
6
CONTINUOUS
10
1.3097378346456692
20
0.7536812992125984
11
1.3117933858267716
21
0.7501209842519685
0
LINE
8
BLACK
6
CONTINUOUS
10
1.3117933858267716
20
0.7501209842519685
11
1.3128574015748031
21
0.74615
0
LINE
8
BLACK
6
CONTINUOUS
10
1.3128574015748031
20
0.74615
11
1.3128574015748031
21
0.7420389763779527
0
LINE
8
BLACK
6
CONTINUOUS
10
1.3128574015748031
20
0.7420389763779527
11
1.3117933858267716
21
0.7380679921259843
0
LINE
8
BLACK
6
CONTINUOUS
10
1.3117933858267716
20
0.7380679921259843
11
1.3097378346456692
21
0.7345076771653544
0
LINE
8
BLACK
6
CONTINUOUS
10
1.3097378346456692
20
0.7345076771653544
11
1.306830905511811
21
0.731600748031496
0
LINE
8
BLACK
6
CONTINUOUS
10
1.306830905511811
20
0.731600748031496
11
1.303270590551181
21
0.7295451968503937
0
LINE
8
BLACK
6
CONTINUOUS
10
1.303270590551181
20
0.7295451968503937
11
1.2992996062992126
21
0.7284811811023622
0
LINE
8
BLACK
6
CONTINUOUS
10
1.2992996062992126
20
0.7284811811023622
11
1.2972440944881889
21
0.7283464566929134
0
LINE
8
BLACK
6
CONTINUOUS
10
1.2972440944881889
20
0.7283464566929134
11
1.2224409448818898
21
0.7283464566929134
0
LINE
8
BLACK
6
CONTINUOUS
10
1.2224409448818898
20
0.7283464566929134
11
1.2203854330708661
21
0.7284811811023622
0
LINE
8
BLACK
6
CONTINUOUS
10
1.2203854330708661
20
0.7284811811023622
11
1.2164144488188977
21
0.7295451968503937
0
LINE
8
BLACK
6
CONTINUOUS
10
1.2164144488188977
20
0.7295451968503937
11
1.2128541338582677
21
0.731600748031496
0
LINE
8
BLACK
6
CONTINUOUS
10
1.2128541338582677
20
0.731600748031496
11
1.2099472047244095
21
0.7345076771653544
0
LINE
8
BLACK
6
CONTINUOUS
10
1.2099472047244095
20
0.7345076771653544
11
1.2078916535433071
21
0.7380679921259843
0
LINE
8
BLACK
6
CONTINUOUS
10
1.2078916535433071
20
0.7380679921259843
11
1.2068276377952756
21
0.7420389763779527
0
LINE
8
BLACK
6
CONTINUOUS
10
1.2068276377952756
20
0.7420389763779527
11
1.2068276377952756
21
0.74615
0
LINE
8
BLACK
6
CONTINUOUS
10
1.2068276377952756
20
0.74615
11
1.2078916535433071
21
0.7501209842519685
0
LINE
8
BLACK
6
CONTINUOUS
10
1.2078916535433071
20
0.7501209842519685
11
1.2099472047244095
21
0.7536812992125984
0
LINE
8
BLACK
6
CONTINUOUS
10
1.2099472047244095
20
0.7536812992125984
11
1.2128541338582677
21
0.7565882283464567
0
LINE
8
BLACK
6
CONTINUOUS
10
1.2128541338582677
20
0.7565882283464567
11
1.2164144488188977
21
0.758643779527559
0
LINE
8
BLACK
6
CONTINUOUS
10
1.2164144488188977
20
0.758643779527559
11
1.2203854330708661
21
0.7597077952755905
0
LINE
8
BLACK
6
CONTINUOUS
10
1.2203854330708661
20
0.7597077952755905
11
1.2224409448818898
21
0.7598425196850394
0
LINE
8
BLACK
6
CONTINUOUS
10
1.2224409448818898
20
0.7598425196850394
11
1.2972440944881889
21
0.7598425196850394
0
LINE
8
BLACK
6
CONTINUOUS
10
1.2972440944881889
20
0.7598425196850394
11
1.2992996062992126
21
0.7597077952755905
0
CIRCLE
8
BLACK
10
1.1539370078740157
20
0.2716535433070866
40
0.0196850393700787
0
LINE
8
BLACK
6
CONTINUOUS
10
1.4683018503937006
20
0.5382552755905512
11
1.4667058267716535
21
0.5322988188976377
0
LINE
8
BLACK
6
CONTINUOUS
10
1.4667058267716535
20
0.5322988188976377
11
1.4636225196850394
21
0.5269583858267717
0
LINE
8
BLACK
6
CONTINUOUS
10
1.4636225196850394
20
0.5269583858267717
11
1.4592620866141732
21
0.5225979527559055
0
LINE
8
BLACK
6
CONTINUOUS
10
1.4592620866141732
20
0.5225979527559055
11
1.453921653543307
21
0.5195146456692913
0
LINE
8
BLACK
6
CONTINUOUS
10
1.453921653543307
20
0.5195146456692913
11
1.4479651968503937
21
0.517918622047244
0
LINE
8
BLACK
6
CONTINUOUS
10
1.4479651968503937
20
0.517918622047244
11
1.4417985826771653
21
0.517918622047244
0
LINE
8
BLACK
6
CONTINUOUS
10
1.4417985826771653
20
0.517918622047244
11
1.435842125984252
21
0.5195146456692913
0
LINE
8
BLACK
6
CONTINUOUS
10
1.435842125984252
20
0.5195146456692913
11
1.4305016929133858
21
0.5225979527559055
0
LINE
8
BLACK
6
CONTINUOUS
10
1.4305016929133858
20
0.5225979527559055
11
1.4261412598425196
21
0.5269583858267717
0
LINE
8
BLACK
6
CONTINUOUS
10
1.4261412598425196
20
0.5269583858267717
11
1.4230579527559055
21
0.5322988188976377
0
LINE
8
BLACK
6
CONTINUOUS
10
1.4230579527559055
20
0.5322988188976377
11
1.4214619291338582
21
0.5382552755905512
0
LINE
8
BLACK
6
CONTINUOUS
10
1.4214619291338582
20
0.5382552755905512
11
1.421259842519685
21
0.5413385826771654
0
LINE
8
BLACK
6
CONTINUOUS
10
1.421259842519685
20
0.5413385826771654
11
1.421259842519685
21
0.5610236220472441
0
LINE
8
BLACK
6
CONTINUOUS
10
1.421259842519685
20
0.5610236220472441
11
1.4214619291338582
21
0.5641069291338583
0
LINE
8
BLACK
6
CONTINUOUS
10
1.4214619291338582
20
0.5641069291338583
11
1.4230579527559055
21
0.5700633858267716
0
LINE
8
BLACK
6
CONTINUOUS
10
1.4230579527559055
20
0.5700633858267716
11
1.4261412598425196
21
0.5754038188976378
0
LINE
8
BLACK
6
CONTINUOUS
10
1.4261412598425196
20
0.5754038188976378
11
1.4305016929133858
21
0.5797642519685039
0
LINE
8
BLACK
6
CONTINUOUS
10
1.4305016929133858
20
0.5797642519685039
11
1.435842125984252
21
0.5828475590551181
0
LINE
8
BLACK
6
CONTINUOUS
10
1.435842125984252
20
0.5828475590551181
11
1.4417985826771653
21
0.5844435826771653
0
LINE
8
BLACK
6
CONTINUOUS
10
1.4417985826771653
20
0.5844435826771653
11
1.4479651968503937
21
0.5844435826771653
0
LINE
8
BLACK
6
CONTINUOUS
10
1.4479651968503937
20
0.5844435826771653
11
1.453921653543307
21
0.5828475590551181
0
LINE
8
BLACK
6
CONTINUOUS
10
1.453921653543307
20
0.5828475590551181
11
1.4592620866141732
21
0.5797642519685039
0
LINE
8
BLACK
6
CONTINUOUS
10
1.4592620866141732
20
0.5797642519685039
11
1.4636225196850394
21
0.5754038188976378
0
LINE
8
BLACK
6
CONTINUOUS
10
1.4636225196850394
20
0.5754038188976378
11
1.4667058267716535
21
0.5700633858267716
0
LINE
8
BLACK
6
CONTINUOUS
10
1.4667058267716535
20
0.5700633858267716
11
1.4683018503937006
21
0.5641069291338583
0
LINE
8
BLACK
6
CONTINUOUS
10
1.4683018503937006
20
0.5641069291338583
11
1.4685039370078741
21
0.5610236220472441
0
LINE
8
BLACK
6
CONTINUOUS
10
1.4685039370078741
20
0.5610236220472441
11
1.4685039370078741
21
0.5413385826771654
0
LINE
8
BLACK
6
CONTINUOUS
10
1.4685039370078741
20
0.5413385826771654
11
1.4683018503937006
21
0.5382552755905512
0
LINE
8
BLACK
6
CONTINUOUS
10
1.0982231102362205
20
0.5185702362204724
11
1.0966270866141732
21
0.512613779527559
0
LINE
8
BLACK
6
CONTINUOUS
10
1.0966270866141732
20
0.512613779527559
11
1.0935437795275591
21
0.5072733464566929
0
LINE
8
BLACK
6
CONTINUOUS
10
1.0935437795275591
20
0.5072733464566929
11
1.0891833464566929
21
0.5029129133858268
0
LINE
8
BLACK
6
CONTINUOUS
10
1.0891833464566929
20
0.5029129133858268
11
1.0838429133858267
21
0.4998296062992126
0
LINE
8
BLACK
6
CONTINUOUS
10
1.0838429133858267
20
0.4998296062992126
11
1.0778864566929134
21
0.4982335826771653
0
LINE
8
BLACK
6
CONTINUOUS
10
1.0778864566929134
20
0.4982335826771653
11
1.071719842519685
21
0.4982335826771653
0
LINE
8
BLACK
6
CONTINUOUS
10
1.071719842519685
20
0.4982335826771653
11
1.0657633858267717
21
0.4998296062992126
0
LINE
8
BLACK
6
CONTINUOUS
10
1.0657633858267717
20
0.4998296062992126
11
1.0604229527559055
21
0.5029129133858268
0
LINE
8
BLACK
6
CONTINUOUS
10
1.0604229527559055
20
0.5029129133858268
11
1.0560625196850393
21
0.5072733464566929
0
LINE
8
BLACK
6
CONTINUOUS
10
1.0560625196850393
20
0.5072733464566929
11
1.0529792125984252
21
0.512613779527559
0
LINE
8
BLACK
6
CONTINUOUS
10
1.0529792125984252
20
0.512613779527559
11
1.0513831889763778
21
0.5185702362204724
0
LINE
8
BLACK
6
CONTINUOUS
10
1.0513831889763778
20
0.5185702362204724
11
1.0511811023622046
21
0.5216535433070866
0
LINE
8
BLACK
6
CONTINUOUS
10
1.0511811023622046
20
0.5216535433070866
11
1.0511811023622046
21
0.5807086614173228
0
LINE
8
BLACK
6
CONTINUOUS
10
1.0511811023622046
20
0.5807086614173228
11
1.0513831889763778
21
0.583791968503937
0
LINE
8
BLACK
6
CONTINUOUS
10
1.0513831889763778
20
0.583791968503937
11
1.0529792125984252
21
0.5897484251968503
0
LINE
8
BLACK
6
CONTINUOUS
10
1.0529792125984252
20
0.5897484251968503
11
1.0560625196850393
21
0.5950888582677165
0
LINE
8
BLACK
6
CONTINUOUS
10
1.0560625196850393
20
0.5950888582677165
11
1.0604229527559055
21
0.5994492913385827
0
LINE
8
BLACK
6
CONTINUOUS
10
1.0604229527559055
20
0.5994492913385827
11
1.0657633858267717
21
0.6025325984251968
0
LINE
8
BLACK
6
CONTINUOUS
10
1.0657633858267717
20
0.6025325984251968
11
1.071719842519685
21
0.604128622047244
0
LINE
8
BLACK
6
CONTINUOUS
10
1.071719842519685
20
0.604128622047244
11
1.0778864566929134
21
0.604128622047244
0
LINE
8
BLACK
6
CONTINUOUS
10
1.0778864566929134
20
0.604128622047244
11
1.0838429133858267
21
0.6025325984251968
0
LINE
8
BLACK
6
CONTINUOUS
10
1.0838429133858267
20
0.6025325984251968
11
1.0891833464566929
21
0.5994492913385827
0
LINE
8
BLACK
6
CONTINUOUS
10
1.0891833464566929
20
0.5994492913385827
11
1.0935437795275591
21
0.5950888582677165
0
LINE
8
BLACK
6
CONTINUOUS
10
1.0935437795275591
20
0.5950888582677165
11
1.0966270866141732
21
0.5897484251968503
0
LINE
8
BLACK
6
CONTINUOUS
10
1.0966270866141732
20
0.5897484251968503
11
1.0982231102362205
21
0.583791968503937
0
LINE
8
BLACK
6
CONTINUOUS
10
1.0982231102362205
20
0.583791968503937
11
1.0984251968503937
21
0.5807086614173228
0
LINE
8
BLACK
6
CONTINUOUS
10
1.0984251968503937
20
0.5807086614173228
11
1.0984251968503937
21
0.5216535433070866
0
LINE
8
BLACK
6
CONTINUOUS
10
1.0984251968503937
20
0.5216535433070866
11
1.0982231102362205
21
0.5185702362204724
0
CIRCLE
8
BLACK
10
1.0539370078740158
20
0.2716535433070866
40
0.0196850393700787
0
CIRCLE
8
BLACK
10
0.9539370078740157
20
0.2716535433070866
40
0.0196850393700787
0
LINE
8
BLACK
6
CONTINUOUS
10
0.9564908267716535
20
0.5382552755905512
11
0.9548948031496063
21
0.5322988188976377
0
LINE
8
BLACK
6
CONTINUOUS
10
0.9548948031496063
20
0.5322988188976377
11
0.9518114960629921
21
0.5269583858267717
0
LINE
8
BLACK
6
CONTINUOUS
10
0.9518114960629921
20
0.5269583858267717
11
0.947451062992126
21
0.5225979527559055
0
LINE
8
BLACK
6
CONTINUOUS
10
0.947451062992126
20
0.5225979527559055
11
0.9421106299212598
21
0.5195146456692913
0
LINE
8
BLACK
6
CONTINUOUS
10
0.9421106299212598
20
0.5195146456692913
11
0.9361541732283465
21
0.517918622047244
0
LINE
8
BLACK
6
CONTINUOUS
10
0.9361541732283465
20
0.517918622047244
11
0.9299875590551181
21
0.517918622047244
0
LINE
8
BLACK
6
CONTINUOUS
10
0.9299875590551181
20
0.517918622047244
11
0.9240311023622046
21
0.5195146456692913
0
LINE
8
BLACK
6
CONTINUOUS
10
0.9240311023622046
20
0.5195146456692913
11
0.9186906692913386
21
0.5225979527559055
0
LINE
8
BLACK
6
CONTINUOUS
10
0.9186906692913386
20
0.5225979527559055
11
0.9143302362204724
21
0.5269583858267717
0
LINE
8
BLACK
6
CONTINUOUS
10
0.9143302362204724
20
0.5269583858267717
11
0.9112469291338583
21
0.5322988188976377
0
LINE
8
BLACK
6
CONTINUOUS
10
0.9112469291338583
20
0.5322988188976377
11
0.909650905511811
21
0.5382552755905512
0
LINE
8
BLACK
6
CONTINUOUS
10
0.909650905511811
20
0.5382552755905512
11
0.9094488188976377
21
0.5413385826771654
0
LINE
8
BLACK
6
CONTINUOUS
10
0.9094488188976377
20
0.5413385826771654
11
0.9094488188976377
21
0.5610236220472441
0
LINE
8
BLACK
6
CONTINUOUS
10
0.9094488188976377
20
0.5610236220472441
11
0.909650905511811
21
0.5641069291338583
0
LINE
8
BLACK
6
CONTINUOUS
10
0.909650905511811
20
0.5641069291338583
11
0.9112469291338583
21
0.5700633858267716
0
LINE
8
BLACK
6
CONTINUOUS
10
0.9112469291338583
20
0.5700633858267716
11
0.9143302362204724
21
0.5754038188976378
0
LINE
8
BLACK
6
CONTINUOUS
10
0.9143302362204724
20
0.5754038188976378
11
0.9186906692913386
21
0.5797642519685039
0
LINE
8
BLACK
6
CONTINUOUS
10
0.9186906692913386
20
0.5797642519685039
11
0.9240311023622046
21
0.5828475590551181
0
LINE
8
BLACK
6
CONTINUOUS
10
0.9240311023622046
20
0.5828475590551181
11
0.9299875590551181
21
0.5844435826771653
0
LINE
8
BLACK
6
CONTINUOUS
10
0.9299875590551181
20
0.5844435826771653
11
0.9361541732283465
21
0.5844435826771653
0
LINE
8
BLACK
6
CONTINUOUS
10
0.9361541732283465
20
0.5844435826771653
11
0.9421106299212598
21
0.5828475590551181
0
LINE
8
BLACK
6
CONTINUOUS
10
0.9421106299212598
20
0.5828475590551181
11
0.947451062992126
21
0.5797642519685039
0
LINE
8
BLACK
6
CONTINUOUS
10
0.947451062992126
20
0.5797642519685039
11
0.9518114960629921
21
0.5754038188976378
0
LINE
8
BLACK
6
CONTINUOUS
10
0.9518114960629921
20
0.5754038188976378
11
0.9548948031496063
21
0.5700633858267716
0
LINE
8
BLACK
6
CONTINUOUS
10
0.9548948031496063
20
0.5700633858267716
11
0.9564908267716535
21
0.5641069291338583
0
LINE
8
BLACK
6
CONTINUOUS
10
0.9564908267716535
20
0.5641069291338583
11
0.9566929133858267
21
0.5610236220472441
0
LINE
8
BLACK
6
CONTINUOUS
10
0.9566929133858267
20
0.5610236220472441
11
0.9566929133858267
21
0.5413385826771654
0
LINE
8
BLACK
6
CONTINUOUS
10
0.9566929133858267
20
0.5413385826771654
11
0.9564908267716535
21
0.5382552755905512
0
LINE
8
BLACK
6
CONTINUOUS
10
0.5864120866141732
20
0.5185702362204724
11
0.584816062992126
21
0.512613779527559
0
LINE
8
BLACK
6
CONTINUOUS
10
0.584816062992126
20
0.512613779527559
11
0.5817327559055118
21
0.5072733464566929
0
LINE
8
BLACK
6
CONTINUOUS
10
0.5817327559055118
20
0.5072733464566929
11
0.5773723228346457
21
0.5029129133858268
0
LINE
8
BLACK
6
CONTINUOUS
10
0.5773723228346457
20
0.5029129133858268
11
0.5720318897637795
21
0.4998296062992126
0
LINE
8
BLACK
6
CONTINUOUS
10
0.5720318897637795
20
0.4998296062992126
11
0.5660754330708662
21
0.4982335826771653
0
LINE
8
BLACK
6
CONTINUOUS
10
0.5660754330708662
20
0.4982335826771653
11
0.5599088188976378
21
0.4982335826771653
0
LINE
8
BLACK
6
CONTINUOUS
10
0.5599088188976378
20
0.4982335826771653
11
0.5539523622047244
21
0.4998296062992126
0
LINE
8
BLACK
6
CONTINUOUS
10
0.5539523622047244
20
0.4998296062992126
11
0.5486119291338583
21
0.5029129133858268
0
LINE
8
BLACK
6
CONTINUOUS
10
0.5486119291338583
20
0.5029129133858268
11
0.5442514960629922
21
0.5072733464566929
0
LINE
8
BLACK
6
CONTINUOUS
10
0.5442514960629922
20
0.5072733464566929
11
0.541168188976378
21
0.512613779527559
0
LINE
8
BLACK
6
CONTINUOUS
10
0.541168188976378
20
0.512613779527559
11
0.5395721653543307
21
0.5185702362204724
0
LINE
8
BLACK
6
CONTINUOUS
10
0.5395721653543307
20
0.5185702362204724
11
0.5393700787401575
21
0.5216535433070866
0
LINE
8
BLACK
6
CONTINUOUS
10
0.5393700787401575
20
0.5216535433070866
11
0.5393700787401575
21
0.5807086614173228
0
LINE
8
BLACK
6
CONTINUOUS
10
0.5393700787401575
20
0.5807086614173228
11
0.5395721653543307
21
0.583791968503937
0
LINE
8
BLACK
6
CONTINUOUS
10
0.5395721653543307
20
0.583791968503937
11
0.541168188976378
21
0.5897484251968503
0
LINE
8
BLACK
6
CONTINUOUS
10
0.541168188976378
20
0.5897484251968503
11
0.5442514960629922
21
0.5950888582677165
0
LINE
8
BLACK
6
CONTINUOUS
10
0.5442514960629922
20
0.5950888582677165
11
0.5486119291338583
21
0.5994492913385827
0
LINE
8
BLACK
6
CONTINUOUS
10
0.5486119291338583
20
0.5994492913385827
11
0.5539523622047244
21
0.6025325984251968
0
LINE
8
BLACK
6
CONTINUOUS
10
0.5539523622047244
20
0.6025325984251968
11
0.5599088188976378
21
0.604128622047244
0
LINE
8
BLACK
6
CONTINUOUS
10
0.5599088188976378
20
0.604128622047244
11
0.5660754330708662
21
0.604128622047244
0
LINE
8
BLACK
6
CONTINUOUS
10
0.5660754330708662
20
0.604128622047244
11
0.5720318897637795
21
0.6025325984251968
0
LINE
8
BLACK
6
CONTINUOUS
10
0.5720318897637795
20
0.6025325984251968
11
0.5773723228346457
21
0.5994492913385827
0
LINE
8
BLACK
6
CONTINUOUS
10
0.5773723228346457
20
0.5994492913385827
11
0.5817327559055118
21
0.5950888582677165
0
LINE
8
BLACK
6
CONTINUOUS
10
0.5817327559055118
20
0.5950888582677165
11
0.584816062992126
21
0.5897484251968503
0
LINE
8
BLACK
6
CONTINUOUS
10
0.584816062992126
20
0.5897484251968503
11
0.5864120866141732
21
0.583791968503937
0
LINE
8
BLACK
6
CONTINUOUS
10
0.5864120866141732
20
0.583791968503937
11
0.5866141732283464
21
0.5807086614173228
0
LINE
8
BLACK
6
CONTINUOUS
10
0.5866141732283464
20
0.5807086614173228
11
0.5866141732283464
21
0.5216535433070866
0
LINE
8
BLACK
6
CONTINUOUS
10
0.5866141732283464
20
0.5216535433070866
11
0.5864120866141732
21
0.5185702362204724
0
CIRCLE
8
BLACK
10
0.8539370078740157
20
0.2716535433070866
40
0.0196850393700787
0
LINE
8
BLACK
6
CONTINUOUS
10
0.7874885826771654
20
0.4368731496062992
11
0.7914595669291339
21
0.4358091338582677
0
LINE
8
BLACK
6
CONTINUOUS
10
0.7914595669291339
20
0.4358091338582677
11
0.7950198818897638
21
0.4337535826771654
0
LINE
8
BLACK
6
CONTINUOUS
10
0.7950198818897638
20
0.4337535826771654
11
0.7979268110236221
21
0.4308466535433071
0
LINE
8
BLACK
6
CONTINUOUS
10
0.7979268110236221
20
0.4308466535433071
11
0.7999823622047244
21
0.4272863385826772
0
LINE
8
BLACK
6
CONTINUOUS
10
0.7999823622047244
20
0.4272863385826772
11
0.8010463779527559
21
0.4233153543307087
0
LINE
8
BLACK
6
CONTINUOUS
10
0.8010463779527559
20
0.4233153543307087
11
0.8010463779527559
21
0.4192043307086614
0
LINE
8
BLACK
6
CONTINUOUS
10
0.8010463779527559
20
0.4192043307086614
11
0.7999823622047244
21
0.4152333464566929
0
LINE
8
BLACK
6
CONTINUOUS
10
0.7999823622047244
20
0.4152333464566929
11
0.7979268110236221
21
0.411673031496063
0
LINE
8
BLACK
6
CONTINUOUS
10
0.7979268110236221
20
0.411673031496063
11
0.7950198818897638
21
0.4087661023622047
0
LINE
8
BLACK
6
CONTINUOUS
10
0.7950198818897638
20
0.4087661023622047
11
0.7914595669291339
21
0.4067105511811023
0
LINE
8
BLACK
6
CONTINUOUS
10
0.7914595669291339
20
0.4067105511811023
11
0.7874885826771654
21
0.4056465354330708
0
LINE
8
BLACK
6
CONTINUOUS
10
0.7874885826771654
20
0.4056465354330708
11
0.7854330708661417
21
0.405511811023622
0
LINE
8
BLACK
6
CONTINUOUS
10
0.7854330708661417
20
0.405511811023622
11
0.7106299212598425
21
0.405511811023622
0
LINE
8
BLACK
6
CONTINUOUS
10
0.7106299212598425
20
0.405511811023622
11
0.7085744094488189
21
0.4056465354330708
0
LINE
8
BLACK
6
CONTINUOUS
10
0.7085744094488189
20
0.4056465354330708
11
0.7046034251968504
21
0.4067105511811023
0
LINE
8
BLACK
6
CONTINUOUS
10
0.7046034251968504
20
0.4067105511811023
11
0.7010431102362205
21
0.4087661023622047
0
LINE
8
BLACK
6
CONTINUOUS
10
0.7010431102362205
20
0.4087661023622047
11
0.6981361811023622
21
0.411673031496063
0
LINE
8
BLACK
6
CONTINUOUS
10
0.6981361811023622
20
0.411673031496063
11
0.6960806299212599
21
0.4152333464566929
0
LINE
8
BLACK
6
CONTINUOUS
10
0.6960806299212599
20
0.4152333464566929
11
0.6950166141732284
21
0.4192043307086614
0
LINE
8
BLACK
6
CONTINUOUS
10
0.6950166141732284
20
0.4192043307086614
11
0.6950166141732284
21
0.4233153543307087
0
LINE
8
BLACK
6
CONTINUOUS
10
0.6950166141732284
20
0.4233153543307087
11
0.6960806299212599
21
0.4272863385826772
0
LINE
8
BLACK
6
CONTINUOUS
10
0.6960806299212599
20
0.4272863385826772
11
0.6981361811023622
21
0.4308466535433071
0
LINE
8
BLACK
6
CONTINUOUS
10
0.6981361811023622
20
0.4308466535433071
11
0.7010431102362205
21
0.4337535826771654
0
LINE
8
BLACK
6
CONTINUOUS
10
0.7010431102362205
20
0.4337535826771654
11
0.7046034251968504
21
0.4358091338582677
0
LINE
8
BLACK
6
CONTINUOUS
10
0.7046034251968504
20
0.4358091338582677
11
0.7085744094488189
21
0.4368731496062992
0
LINE
8
BLACK
6
CONTINUOUS
10
0.7085744094488189
20
0.4368731496062992
11
0.7106299212598425
21
0.437007874015748
0
LINE
8
BLACK
6
CONTINUOUS
10
0.7106299212598425
20
0.437007874015748
11
0.7854330708661417
21
0.437007874015748
0
LINE
8
BLACK
6
CONTINUOUS
10
0.7854330708661417
20
0.437007874015748
11
0.7874885826771654
21
0.4368731496062992
0
LINE
8
BLACK
6
CONTINUOUS
10
0.7874885826771654
20
0.7597077952755905
11
0.7914595669291339
21
0.758643779527559
0
LINE
8
BLACK
6
CONTINUOUS
10
0.7914595669291339
20
0.758643779527559
11
0.7950198818897638
21
0.7565882283464567
0
LINE
8
BLACK
6
CONTINUOUS
10
0.7950198818897638
20
0.7565882283464567
11
0.7979268110236221
21
0.7536812992125984
0
LINE
8
BLACK
6
CONTINUOUS
10
0.7979268110236221
20
0.7536812992125984
11
0.7999823622047244
21
0.7501209842519685
0
LINE
8
BLACK
6
CONTINUOUS
10
0.7999823622047244
20
0.7501209842519685
11
0.8010463779527559
21
0.74615
0
LINE
8
BLACK
6
CONTINUOUS
10
0.8010463779527559
20
0.74615
11
0.8010463779527559
21
0.7420389763779527
0
LINE
8
BLACK
6
CONTINUOUS
10
0.8010463779527559
20
0.7420389763779527
11
0.7999823622047244
21
0.7380679921259843
0
LINE
8
BLACK
6
CONTINUOUS
10
0.7999823622047244
20
0.7380679921259843
11
0.7979268110236221
21
0.7345076771653544
0
LINE
8
BLACK
6
CONTINUOUS
10
0.7979268110236221
20
0.7345076771653544
11
0.7950198818897638
21
0.731600748031496
0
LINE
8
BLACK
6
CONTINUOUS
10
0.7950198818897638
20
0.731600748031496
11
0.7914595669291339
21
0.7295451968503937
0
LINE
8
BLACK
6
CONTINUOUS
10
0.7914595669291339
20
0.7295451968503937
11
0.7874885826771654
21
0.7284811811023622
0
LINE
8
BLACK
6
CONTINUOUS
10
0.7874885826771654
20
0.7284811811023622
11
0.7854330708661417
21
0.7283464566929134
0
LINE
8
BLACK
6
CONTINUOUS
10
0.7854330708661417
20
0.7283464566929134
11
0.7106299212598425
21
0.7283464566929134
0
LINE
8
BLACK
6
CONTINUOUS
10
0.7106299212598425
20
0.7283464566929134
11
0.7085744094488189
21
0.7284811811023622
0
LINE
8
BLACK
6
CONTINUOUS
10
0.7085744094488189
20
0.7284811811023622
11
0.7046034251968504
21
0.7295451968503937
0
LINE
8
BLACK
6
CONTINUOUS
10
0.7046034251968504
20
0.7295451968503937
11
0.7010431102362205
21
0.731600748031496
0
LINE
8
BLACK
6
CONTINUOUS
10
0.7010431102362205
20
0.731600748031496
11
0.6981361811023622
21
0.7345076771653544
0
LINE
8
BLACK
6
CONTINUOUS
10
0.6981361811023622
20
0.7345076771653544
11
0.6960806299212599
21
0.7380679921259843
0
LINE
8
BLACK
6
CONTINUOUS
10
0.6960806299212599
20
0.7380679921259843
11
0.6950166141732284
21
0.7420389763779527
0
LINE
8
BLACK
6
CONTINUOUS
10
0.6950166141732284
20
0.7420389763779527
11
0.6950166141732284
21
0.74615
0
LINE
8
BLACK
6
CONTINUOUS
10
0.6950166141732284
20
0.74615
11
0.6960806299212599
21
0.7501209842519685
0
LINE
8
BLACK
6
CONTINUOUS
10
0.6960806299212599
20
0.7501209842519685
11
0.6981361811023622
21
0.7536812992125984
0
LINE
8
BLACK
6
CONTINUOUS
10
0.6981361811023622
20
0.7536812992125984
11
0.7010431102362205
21
0.7565882283464567
0
LINE
8
BLACK
6
CONTINUOUS
10
0.7010431102362205
20
0.7565882283464567
11
0.7046034251968504
21
0.758643779527559
0
LINE
8
BLACK
6
CONTINUOUS
10
0.7046034251968504
20
0.758643779527559
11
0.7085744094488189
21
0.7597077952755905
0
LINE
8
BLACK
6
CONTINUOUS
10
0.7085744094488189
20
0.7597077952755905
11
0.7106299212598425
21
0.7598425196850394
0
LINE
8
BLACK
6
CONTINUOUS
10
0.7106299212598425
20
0.7598425196850394
11
0.7854330708661417
21
0.7598425196850394
0
LINE
8
BLACK
6
CONTINUOUS
10
0.7854330708661417
20
0.7598425196850394
11
0.7874885826771654
21
0.7597077952755905
0
CIRCLE
8
BLACK
10
1.3075590551181102
20
3.5763779527559056
40
0.026
0
CIRCLE
8
BLACK
10
1.1107086614173227
20
3.5763779527559056
40
0.026
0
CIRCLE
8
BLACK
10
2.7475590551181104
20
3.9763779527559056
40
0.026
0
CIRCLE
8
BLACK
10
2.5507086614173229
20
3.9763779527559056
40
0.026
0
CIRCLE
8
BLACK
10
3.4675590551181101
20
3.1763779527559053
40
0.026
0
CIRCLE
8
BLACK
10
3.2707086614173226
20
3.1763779527559053
40
0.026
0
CIRCLE
8
BLACK
10
3.1075590551181103
20
3.7763779527559054
40
0.026
0
CIRCLE
8
BLACK
10
2.9107086614173228
20
3.7763779527559054
40
0.026
0
CIRCLE
8
BLACK
10
2.3875590551181101
20
3.3763779527559055
40
0.026
0
CIRCLE
8
BLACK
10
2.1907086614173226
20
3.3763779527559055
40
0.026
0
CIRCLE
8
BLACK
10
0.9475590551181102
20
3.7763779527559054
40
0.026
0
CIRCLE
8
BLACK
10
0.7507086614173228
20
3.7763779527559054
40
0.026
0
CIRCLE
8
BLACK
10
3.7401574803149606
20
4.0925196850393704
40
0.062992125984252
0
CIRCLE
8
BLACK
10
2.0275590551181102
20
3.1763779527559053
40
0.026
0
CIRCLE
8
BLACK
10
1.8307086614173227
20
3.1763779527559053
40
0.026
0
CIRCLE
8
BLACK
10
0.5875590551181102
20
3.5757086614173228
40
0.026
0
CIRCLE
8
BLACK
10
0.3907086614173228
20
3.5757086614173228
40
0.026
0
LINE
8
BLACK
6
CONTINUOUS
10
3.2284334645669293
20
0.4368731496062992
11
3.2324044488188974
21
0.4358091338582677
0
LINE
8
BLACK
6
CONTINUOUS
10
3.2324044488188974
20
0.4358091338582677
11
3.2359647637795277
21
0.4337535826771654
0
LINE
8
BLACK
6
CONTINUOUS
10
3.2359647637795277
20
0.4337535826771654
11
3.2388716929133858
21
0.4308466535433071
0
LINE
8
BLACK
6
CONTINUOUS
10
3.2388716929133858
20
0.4308466535433071
11
3.2409272440944883
21
0.4272863385826772
0
LINE
8
BLACK
6
CONTINUOUS
10
3.2409272440944883
20
0.4272863385826772
11
3.2419912598425196
21
0.4233153543307087
0
LINE
8
BLACK
6
CONTINUOUS
10
3.2419912598425196
20
0.4233153543307087
11
3.2419912598425196
21
0.4192043307086614
0
LINE
8
BLACK
6
CONTINUOUS
10
3.2419912598425196
20
0.4192043307086614
11
3.2409272440944883
21
0.4152333464566929
0
LINE
8
BLACK
6
CONTINUOUS
10
3.2409272440944883
20
0.4152333464566929
11
3.2388716929133858
21
0.411673031496063
0
LINE
8
BLACK
6
CONTINUOUS
10
3.2388716929133858
20
0.411673031496063
11
3.2359647637795277
21
0.4087661023622047
0
LINE
8
BLACK
6
CONTINUOUS
10
3.2359647637795277
20
0.4087661023622047
11
3.2324044488188974
21
0.4067105511811023
0
LINE
8
BLACK
6
CONTINUOUS
10
3.2324044488188974
20
0.4067105511811023
11
3.2284334645669293
21
0.4056465354330708
0
LINE
8
BLACK
6
CONTINUOUS
10
3.2284334645669293
20
0.4056465354330708
11
3.2263779527559056
21
0.405511811023622
0
LINE
8
BLACK
6
CONTINUOUS
10
3.2263779527559056
20
0.405511811023622
11
3.151574803149606
21
0.405511811023622
0
LINE
8
BLACK
6
CONTINUOUS
10
3.151574803149606
20
0.405511811023622
11
3.1495192913385828
21
0.4056465354330708
0
LINE
8
BLACK
6
CONTINUOUS
10
3.1495192913385828
20
0.4056465354330708
11
3.1455483070866141
21
0.4067105511811023
0
LINE
8
BLACK
6
CONTINUOUS
10
3.1455483070866141
20
0.4067105511811023
11
3.1419879921259843
21
0.4087661023622047
0
LINE
8
BLACK
6
CONTINUOUS
10
3.1419879921259843
20
0.4087661023622047
11
3.1390810629921257
21
0.411673031496063
0
LINE
8
BLACK
6
CONTINUOUS
10
3.1390810629921257
20
0.411673031496063
11
3.1370255118110237
21
0.4152333464566929
0
LINE
8
BLACK
6
CONTINUOUS
10
3.1370255118110237
20
0.4152333464566929
11
3.135961496062992
21
0.4192043307086614
0
LINE
8
BLACK
6
CONTINUOUS
10
3.135961496062992
20
0.4192043307086614
11
3.135961496062992
21
0.4233153543307087
0
LINE
8
BLACK
6
CONTINUOUS
10
3.135961496062992
20
0.4233153543307087
11
3.1370255118110237
21
0.4272863385826772
0
LINE
8
BLACK
6
CONTINUOUS
10
3.1370255118110237
20
0.4272863385826772
11
3.1390810629921257
21
0.4308466535433071
0
LINE
8
BLACK
6
CONTINUOUS
10
3.1390810629921257
20
0.4308466535433071
11
3.1419879921259843
21
0.4337535826771654
0
LINE
8
BLACK
6
CONTINUOUS
10
3.1419879921259843
20
0.4337535826771654
11
3.1455483070866141
21
0.4358091338582677
0
LINE
8
BLACK
6
CONTINUOUS
10
3.1455483070866141
20
0.4358091338582677
11
3.1495192913385828
21
0.4368731496062992
0
LINE
8
BLACK
6
CONTINUOUS
10
3.1495192913385828
20
0.4368731496062992
11
3.151574803149606
21
0.437007874015748
0
LINE
8
BLACK
6
CONTINUOUS
10
3.151574803149606
20
0.437007874015748
11
3.2263779527559056
21
0.437007874015748
0
LINE
8
BLACK
6
CONTINUOUS
10
3.2263779527559056
20
0.437007874015748
11
3.2284334645669293
21
0.4368731496062992
0
LINE
8
BLACK
6
CONTINUOUS
10
3.2284334645669293
20
0.7597077952755905
11
3.2324044488188974
21
0.758643779527559
0
LINE
8
BLACK
6
CONTINUOUS
10
3.2324044488188974
20
0.758643779527559
11
3.2359647637795277
21
0.7565882283464567
0
LINE
8
BLACK
6
CONTINUOUS
10
3.2359647637795277
20
0.7565882283464567
11
3.2388716929133858
21
0.7536812992125984
0
LINE
8
BLACK
6
CONTINUOUS
10
3.2388716929133858
20
0.7536812992125984
11
3.2409272440944883
21
0.7501209842519685
0
LINE
8
BLACK
6
CONTINUOUS
10
3.2409272440944883
20
0.7501209842519685
11
3.2419912598425196
21
0.74615
0
LINE
8
BLACK
6
CONTINUOUS
10
3.2419912598425196
20
0.74615
11
3.2419912598425196
21
0.7420389763779527
0
LINE
8
BLACK
6
CONTINUOUS
10
3.2419912598425196
20
0.7420389763779527
11
3.2409272440944883
21
0.7380679921259843
0
LINE
8
BLACK
6
CONTINUOUS
10
3.2409272440944883
20
0.7380679921259843
11
3.2388716929133858
21
0.7345076771653544
0
LINE
8
BLACK
6
CONTINUOUS
10
3.2388716929133858
20
0.7345076771653544
11
3.2359647637795277
21
0.731600748031496
0
LINE
8
BLACK
6
CONTINUOUS
10
3.2359647637795277
20
0.731600748031496
11
3.2324044488188974
21
0.7295451968503937
0
LINE
8
BLACK
6
CONTINUOUS
10
3.2324044488188974
20
0.7295451968503937
11
3.2284334645669293
21
0.7284811811023622
0
LINE
8
BLACK
6
CONTINUOUS
10
3.2284334645669293
20
0.7284811811023622
11
3.2263779527559056
21
0.7283464566929134
0
LINE
8
BLACK
6
CONTINUOUS
10
3.2263779527559056
20
0.7283464566929134
11
3.151574803149606
21
0.7283464566929134
0
LINE
8
BLACK
6
CONTINUOUS
10
3.151574803149606
20
0.7283464566929134
11
3.1495192913385828
21
0.7284811811023622
0
LINE
8
BLACK
6
CONTINUOUS
10
3.1495192913385828
20
0.7284811811023622
11
3.1455483070866141
21
0.7295451968503937
0
LINE
8
BLACK
6
CONTINUOUS
10
3.1455483070866141
20
0.7295451968503937
11
3.1419879921259843
21
0.731600748031496
0
LINE
8
BLACK
6
CONTINUOUS
10
3.1419879921259843
20
0.731600748031496
11
3.1390810629921257
21
0.7345076771653544
0
LINE
8
BLACK
6
CONTINUOUS
10
3.1390810629921257
20
0.7345076771653544
11
3.1370255118110237
21
0.7380679921259843
0
LINE
8
BLACK
6
CONTINUOUS
10
3.1370255118110237
20
0.7380679921259843
11
3.135961496062992
21
0.7420389763779527
0
LINE
8
BLACK
6
CONTINUOUS
10
3.135961496062992
20
0.7420389763779527
11
3.135961496062992
21
0.74615
0
LINE
8
BLACK
6
CONTINUOUS
10
3.135961496062992
20
0.74615
11
3.1370255118110237
21
0.7501209842519685
0
LINE
8
BLACK
6
CONTINUOUS
10
3.1370255118110237
20
0.7501209842519685
11
3.1390810629921257
21
0.7536812992125984
0
LINE
8
BLACK
6
CONTINUOUS
10
3.1390810629921257
20
0.7536812992125984
11
3.1419879921259843
21
0.7565882283464567
0
LINE
8
BLACK
6
CONTINUOUS
10
3.1419879921259843
20
0.7565882283464567
11
3.1455483070866141
21
0.758643779527559
0
LINE
8
BLACK
6
CONTINUOUS
10
3.1455483070866141
20
0.758643779527559
11
3.1495192913385828
21
0.7597077952755905
0
LINE
8
BLACK
6
CONTINUOUS
10
3.1495192913385828
20
0.7597077952755905
11
3.151574803149606
21
0.7598425196850394
0
LINE
8
BLACK
6
CONTINUOUS
10
3.151574803149606
20
0.7598425196850394
11
3.2263779527559056
21
0.7598425196850394
0
LINE
8
BLACK
6
CONTINUOUS
10
3.2263779527559056
20
0.7598425196850394
11
3.2284334645669293
21
0.7597077952755905
0
CIRCLE
8
BLACK
10
3.0830708661417323
20
0.2716535433070866
40
0.0196850393700787
0
LINE
8
BLACK
6
CONTINUOUS
10
3.3974357086614173
20
0.5382552755905512
11
3.3958396850393702
21
0.5322988188976377
0
LINE
8
BLACK
6
CONTINUOUS
10
3.3958396850393702
20
0.5322988188976377
11
3.3927563779527556
21
0.5269583858267717
0
LINE
8
BLACK
6
CONTINUOUS
10
3.3927563779527556
20
0.5269583858267717
11
3.3883959448818897
21
0.5225979527559055
0
LINE
8
BLACK
6
CONTINUOUS
10
3.3883959448818897
20
0.5225979527559055
11
3.3830555118110235
21
0.5195146456692913
0
LINE
8
BLACK
6
CONTINUOUS
10
3.3830555118110235
20
0.5195146456692913
11
3.3770990551181104
21
0.517918622047244
0
LINE
8
BLACK
6
CONTINUOUS
10
3.3770990551181104
20
0.517918622047244
11
3.3709324409448818
21
0.517918622047244
0
LINE
8
BLACK
6
CONTINUOUS
10
3.3709324409448818
20
0.517918622047244
11
3.3649759842519686
21
0.5195146456692913
0
LINE
8
BLACK
6
CONTINUOUS
10
3.3649759842519686
20
0.5195146456692913
11
3.3596355511811025
21
0.5225979527559055
0
LINE
8
BLACK
6
CONTINUOUS
10
3.3596355511811025
20
0.5225979527559055
11
3.355275118110236
21
0.5269583858267717
0
LINE
8
BLACK
6
CONTINUOUS
10
3.355275118110236
20
0.5269583858267717
11
3.352191811023622
21
0.5322988188976377
0
LINE
8
BLACK
6
CONTINUOUS
10
3.352191811023622
20
0.5322988188976377
11
3.3505957874015748
21
0.5382552755905512
0
LINE
8
BLACK
6
CONTINUOUS
10
3.3505957874015748
20
0.5382552755905512
11
3.3503937007874014
21
0.5413385826771654
0
LINE
8
BLACK
6
CONTINUOUS
10
3.3503937007874014
20
0.5413385826771654
11
3.3503937007874014
21
0.5610236220472441
0
LINE
8
BLACK
6
CONTINUOUS
10
3.3503937007874014
20
0.5610236220472441
11
3.3505957874015748
21
0.5641069291338583
0
LINE
8
BLACK
6
CONTINUOUS
10
3.3505957874015748
20
0.5641069291338583
11
3.352191811023622
21
0.5700633858267716
0
LINE
8
BLACK
6
CONTINUOUS
10
3.352191811023622
20
0.5700633858267716
11
3.355275118110236
21
0.5754038188976378
0
LINE
8
BLACK
6
CONTINUOUS
10
3.355275118110236
20
0.5754038188976378
11
3.3596355511811025
21
0.5797642519685039
0
LINE
8
BLACK
6
CONTINUOUS
10
3.3596355511811025
20
0.5797642519685039
11
3.3649759842519686
21
0.5828475590551181
0
LINE
8
BLACK
6
CONTINUOUS
10
3.3649759842519686
20
0.5828475590551181
11
3.3709324409448818
21
0.5844435826771653
0
LINE
8
BLACK
6
CONTINUOUS
10
3.3709324409448818
20
0.5844435826771653
11
3.3770990551181104
21
0.5844435826771653
0
LINE
8
BLACK
6
CONTINUOUS
10
3.3770990551181104
20
0.5844435826771653
11
3.3830555118110235
21
0.5828475590551181
0
LINE
8
BLACK
6
CONTINUOUS
10
3.3830555118110235
20
0.5828475590551181
11
3.3883959448818897
21
0.5797642519685039
0
LINE
8
BLACK
6
CONTINUOUS
10
3.3883959448818897
20
0.5797642519685039
11
3.3927563779527556
21
0.5754038188976378
0
LINE
8
BLACK
6
CONTINUOUS
10
3.3927563779527556
20
0.5754038188976378
11
3.3958396850393702
21
0.5700633858267716
0
LINE
8
BLACK
6
CONTINUOUS
10
3.3958396850393702
20
0.5700633858267716
11
3.3974357086614173
21
0.5641069291338583
0
LINE
8
BLACK
6
CONTINUOUS
10
3.3974357086614173
20
0.5641069291338583
11
3.3976377952755903
21
0.5610236220472441
0
LINE
8
BLACK
6
CONTINUOUS
10
3.3976377952755903
20
0.5610236220472441
11
3.3976377952755903
21
0.5413385826771654
0
LINE
8
BLACK
6
CONTINUOUS
10
3.3976377952755903
20
0.5413385826771654
11
3.3974357086614173
21
0.5382552755905512
0
LINE
8
BLACK
6
CONTINUOUS
10
3.0273569685039368
20
0.5185702362204724
11
3.0257609448818896
21
0.512613779527559
0
LINE
8
BLACK
6
CONTINUOUS
10
3.0257609448818896
20
0.512613779527559
11
3.0226776377952755
21
0.5072733464566929
0
LINE
8
BLACK
6
CONTINUOUS
10
3.0226776377952755
20
0.5072733464566929
11
3.0183172047244096
21
0.5029129133858268
0
LINE
8
BLACK
6
CONTINUOUS
10
3.0183172047244096
20
0.5029129133858268
11
3.0129767716535434
21
0.4998296062992126
0
LINE
8
BLACK
6
CONTINUOUS
10
3.0129767716535434
20
0.4998296062992126
11
3.0070203149606298
21
0.4982335826771653
0
LINE
8
BLACK
6
CONTINUOUS
10
3.0070203149606298
20
0.4982335826771653
11
3.0008537007874017
21
0.4982335826771653
0
LINE
8
BLACK
6
CONTINUOUS
10
3.0008537007874017
20
0.4982335826771653
11
2.9948972440944881
21
0.4998296062992126
0
LINE
8
BLACK
6
CONTINUOUS
10
2.9948972440944881
20
0.4998296062992126
11
2.9895568110236219
21
0.5029129133858268
0
LINE
8
BLACK
6
CONTINUOUS
10
2.9895568110236219
20
0.5029129133858268
11
2.9851963779527559
21
0.5072733464566929
0
LINE
8
BLACK
6
CONTINUOUS
10
2.9851963779527559
20
0.5072733464566929
11
2.9821130708661419
21
0.512613779527559
0
LINE
8
BLACK
6
CONTINUOUS
10
2.9821130708661419
20
0.512613779527559
11
2.9805170472440943
21
0.5185702362204724
0
LINE
8
BLACK
6
CONTINUOUS
10
2.9805170472440943
20
0.5185702362204724
11
2.9803149606299213
21
0.5216535433070866
0
LINE
8
BLACK
6
CONTINUOUS
10
2.9803149606299213
20
0.5216535433070866
11
2.9803149606299213
21
0.5807086614173228
0
LINE
8
BLACK
6
CONTINUOUS
10
2.9803149606299213
20
0.5807086614173228
11
2.9805170472440943
21
0.583791968503937
0
LINE
8
BLACK
6
CONTINUOUS
10
2.9805170472440943
20
0.583791968503937
11
2.9821130708661419
21
0.5897484251968503
0
LINE
8
BLACK
6
CONTINUOUS
10
2.9821130708661419
20
0.5897484251968503
11
2.9851963779527559
21
0.5950888582677165
0
LINE
8
BLACK
6
CONTINUOUS
10
2.9851963779527559
20
0.5950888582677165
11
2.9895568110236219
21
0.5994492913385827
0
LINE
8
BLACK
6
CONTINUOUS
10
2.9895568110236219
20
0.5994492913385827
11
2.9948972440944881
21
0.6025325984251968
0
LINE
8
BLACK
6
CONTINUOUS
10
2.9948972440944881
20
0.6025325984251968
11
3.0008537007874017
21
0.604128622047244
0
LINE
8
BLACK
6
CONTINUOUS
10
3.0008537007874017
20
0.604128622047244
11
3.0070203149606298
21
0.604128622047244
0
LINE
8
BLACK
6
CONTINUOUS
10
3.0070203149606298
20
0.604128622047244
11
3.0129767716535434
21
0.6025325984251968
0
LINE
8
BLACK
6
CONTINUOUS
10
3.0129767716535434
20
0.6025325984251968
11
3.0183172047244096
21
0.5994492913385827
0
LINE
8
BLACK
6
CONTINUOUS
10
3.0183172047244096
20
0.5994492913385827
11
3.0226776377952755
21
0.5950888582677165
0
LINE
8
BLACK
6
CONTINUOUS
10
3.0226776377952755
20
0.5950888582677165
11
3.0257609448818896
21
0.5897484251968503
0
LINE
8
BLACK
6
CONTINUOUS
10
3.0257609448818896
20
0.5897484251968503
11
3.0273569685039368
21
0.583791968503937
0
LINE
8
BLACK
6
CONTINUOUS
10
3.0273569685039368
20
0.583791968503937
11
3.0275590551181102
21
0.5807086614173228
0
LINE
8
BLACK
6
CONTINUOUS
10
3.0275590551181102
20
0.5807086614173228
11
3.0275590551181102
21
0.5216535433070866
0
LINE
8
BLACK
6
CONTINUOUS
10
3.0275590551181102
20
0.5216535433070866
11
3.0273569685039368
21
0.5185702362204724
0
CIRCLE
8
BLACK
10
2.9830708661417322
20
0.2716535433070866
40
0.0196850393700787
0
CIRCLE
8
BLACK
10
2.8830708661417321
20
0.2716535433070866
40
0.0196850393700787
0
LINE
8
BLACK
6
CONTINUOUS
10
2.8856246850393701
20
0.5382552755905512
11
2.8840286614173229
21
0.5322988188976377
0
LINE
8
BLACK
6
CONTINUOUS
10
2.8840286614173229
20
0.5322988188976377
11
2.8809453543307084
21
0.5269583858267717
0
LINE
8
BLACK
6
CONTINUOUS
10
2.8809453543307084
20
0.5269583858267717
11
2.8765849212598424
21
0.5225979527559055
0
LINE
8
BLACK
6
CONTINUOUS
10
2.8765849212598424
20
0.5225979527559055
11
2.8712444881889763
21
0.5195146456692913
0
LINE
8
BLACK
6
CONTINUOUS
10
2.8712444881889763
20
0.5195146456692913
11
2.8652880314960631
21
0.517918622047244
0
LINE
8
BLACK
6
CONTINUOUS
10
2.8652880314960631
20
0.517918622047244
11
2.8591214173228345
21
0.517918622047244
0
LINE
8
BLACK
6
CONTINUOUS
10
2.8591214173228345
20
0.517918622047244
11
2.853164960629921
21
0.5195146456692913
0
LINE
8
BLACK
6
CONTINUOUS
10
2.853164960629921
20
0.5195146456692913
11
2.8478245275590552
21
0.5225979527559055
0
LINE
8
BLACK
6
CONTINUOUS
10
2.8478245275590552
20
0.5225979527559055
11
2.8434640944881888
21
0.5269583858267717
0
LINE
8
BLACK
6
CONTINUOUS
10
2.8434640944881888
20
0.5269583858267717
11
2.8403807874015747
21
0.5322988188976377
0
LINE
8
BLACK
6
CONTINUOUS
10
2.8403807874015747
20
0.5322988188976377
11
2.8387847637795276
21
0.5382552755905512
0
LINE
8
BLACK
6
CONTINUOUS
10
2.8387847637795276
20
0.5382552755905512
11
2.8385826771653542
21
0.5413385826771654
0
LINE
8
BLACK
6
CONTINUOUS
10
2.8385826771653542
20
0.5413385826771654
11
2.8385826771653542
21
0.5610236220472441
0
LINE
8
BLACK
6
CONTINUOUS
10
2.8385826771653542
20
0.5610236220472441
11
2.8387847637795276
21
0.5641069291338583
0
LINE
8
BLACK
6
CONTINUOUS
10
2.8387847637795276
20
0.5641069291338583
11
2.8403807874015747
21
0.5700633858267716
0
LINE
8
BLACK
6
CONTINUOUS
10
2.8403807874015747
20
0.5700633858267716
11
2.8434640944881888
21
0.5754038188976378
0
LINE
8
BLACK
6
CONTINUOUS
10
2.8434640944881888
20
0.5754038188976378
11
2.8478245275590552
21
0.5797642519685039
0
LINE
8
BLACK
6
CONTINUOUS
10
2.8478245275590552
20
0.5797642519685039
11
2.853164960629921
21
0.5828475590551181
0
LINE
8
BLACK
6
CONTINUOUS
10
2.853164960629921
20
0.5828475590551181
11
2.8591214173228345
21
0.5844435826771653
0
LINE
8
BLACK
6
CONTINUOUS
10
2.8591214173228345
20
0.5844435826771653
11
2.8652880314960631
21
0.5844435826771653
0
LINE
8
BLACK
6
CONTINUOUS
10
2.8652880314960631
20
0.5844435826771653
11
2.8712444881889763
21
0.5828475590551181
0
LINE
8
BLACK
6
CONTINUOUS
10
2.8712444881889763
20
0.5828475590551181
11
2.8765849212598424
21
0.5797642519685039
0
LINE
8
BLACK
6
CONTINUOUS
10
2.8765849212598424
20
0.5797642519685039
11
2.8809453543307084
21
0.5754038188976378
0
LINE
8
BLACK
6
CONTINUOUS
10
2.8809453543307084
20
0.5754038188976378
11
2.8840286614173229
21
0.5700633858267716
0
LINE
8
BLACK
6
CONTINUOUS
10
2.8840286614173229
20
0.5700633858267716
11
2.8856246850393701
21
0.5641069291338583
0
LINE
8
BLACK
6
CONTINUOUS
10
2.8856246850393701
20
0.5641069291338583
11
2.8858267716535431
21
0.5610236220472441
0
LINE
8
BLACK
6
CONTINUOUS
10
2.8858267716535431
20
0.5610236220472441
11
2.8858267716535431
21
0.5413385826771654
0
LINE
8
BLACK
6
CONTINUOUS
10
2.8858267716535431
20
0.5413385826771654
11
2.8856246850393701
21
0.5382552755905512
0
LINE
8
BLACK
6
CONTINUOUS
10
2.5155459448818895
20
0.5185702362204724
11
2.5139499212598424
21
0.512613779527559
0
LINE
8
BLACK
6
CONTINUOUS
10
2.5139499212598424
20
0.512613779527559
11
2.5108666141732283
21
0.5072733464566929
0
LINE
8
BLACK
6
CONTINUOUS
10
2.5108666141732283
20
0.5072733464566929
11
2.5065061811023623
21
0.5029129133858268
0
LINE
8
BLACK
6
CONTINUOUS
10
2.5065061811023623
20
0.5029129133858268
11
2.5011657480314962
21
0.4998296062992126
0
LINE
8
BLACK
6
CONTINUOUS
10
2.5011657480314962
20
0.4998296062992126
11
2.4952092913385826
21
0.4982335826771653
0
LINE
8
BLACK
6
CONTINUOUS
10
2.4952092913385826
20
0.4982335826771653
11
2.4890426771653544
21
0.4982335826771653
0
LINE
8
BLACK
6
CONTINUOUS
10
2.4890426771653544
20
0.4982335826771653
11
2.4830862204724409
21
0.4998296062992126
0
LINE
8
BLACK
6
CONTINUOUS
10
2.4830862204724409
20
0.4998296062992126
11
2.4777457874015747
21
0.5029129133858268
0
LINE
8
BLACK
6
CONTINUOUS
10
2.4777457874015747
20
0.5029129133858268
11
2.4733853543307087
21
0.5072733464566929
0
LINE
8
BLACK
6
CONTINUOUS
10
2.4733853543307087
20
0.5072733464566929
11
2.4703020472440946
21
0.512613779527559
0
LINE
8
BLACK
6
CONTINUOUS
10
2.4703020472440946
20
0.512613779527559
11
2.4687060236220471
21
0.5185702362204724
0
LINE
8
BLACK
6
CONTINUOUS
10
2.4687060236220471
20
0.5185702362204724
11
2.4685039370078741
21
0.5216535433070866
0
LINE
8
BLACK
6
CONTINUOUS
10
2.4685039370078741
20
0.5216535433070866
11
2.4685039370078741
21
0.5807086614173228
0
LINE
8
BLACK
6
CONTINUOUS
10
2.4685039370078741
20
0.5807086614173228
11
2.4687060236220471
21
0.583791968503937
0
LINE
8
BLACK
6
CONTINUOUS
10
2.4687060236220471
20
0.583791968503937
11
2.4703020472440946
21
0.5897484251968503
0
LINE
8
BLACK
6
CONTINUOUS
10
2.4703020472440946
20
0.5897484251968503
11
2.4733853543307087
21
0.5950888582677165
0
LINE
8
BLACK
6
CONTINUOUS
10
2.4733853543307087
20
0.5950888582677165
11
2.4777457874015747
21
0.5994492913385827
0
LINE
8
BLACK
6
CONTINUOUS
10
2.4777457874015747
20
0.5994492913385827
11
2.4830862204724409
21
0.6025325984251968
0
LINE
8
BLACK
6
CONTINUOUS
10
2.4830862204724409
20
0.6025325984251968
11
2.4890426771653544
21
0.604128622047244
0
LINE
8
BLACK
6
CONTINUOUS
10
2.4890426771653544
20
0.604128622047244
11
2.4952092913385826
21
0.604128622047244
0
LINE
8
BLACK
6
CONTINUOUS
10
2.4952092913385826
20
0.604128622047244
11
2.5011657480314962
21
0.6025325984251968
0
LINE
8
BLACK
6
CONTINUOUS
10
2.5011657480314962
20
0.6025325984251968
11
2.5065061811023623
21
0.5994492913385827
0
LINE
8
BLACK
6
CONTINUOUS
10
2.5065061811023623
20
0.5994492913385827
11
2.5108666141732283
21
0.5950888582677165
0
LINE
8
BLACK
6
CONTINUOUS
10
2.5108666141732283
20
0.5950888582677165
11
2.5139499212598424
21
0.5897484251968503
0
LINE
8
BLACK
6
CONTINUOUS
10
2.5139499212598424
20
0.5897484251968503
11
2.5155459448818895
21
0.583791968503937
0
LINE
8
BLACK
6
CONTINUOUS
10
2.5155459448818895
20
0.583791968503937
11
2.515748031496063
21
0.5807086614173228
0
LINE
8
BLACK
6
CONTINUOUS
10
2.515748031496063
20
0.5807086614173228
11
2.515748031496063
21
0.5216535433070866
0
LINE
8
BLACK
6
CONTINUOUS
10
2.515748031496063
20
0.5216535433070866
11
2.5155459448818895
21
0.5185702362204724
0
CIRCLE
8
BLACK
10
2.783070866141732
20
0.2716535433070866
40
0.0196850393700787
0
LINE
8
BLACK
6
CONTINUOUS
10
2.716622440944882
20
0.4368731496062992
11
2.7205934251968502
21
0.4358091338582677
0
LINE
8
BLACK
6
CONTINUOUS
10
2.7205934251968502
20
0.4358091338582677
11
2.7241537401574805
21
0.4337535826771654
0
LINE
8
BLACK
6
CONTINUOUS
10
2.7241537401574805
20
0.4337535826771654
11
2.7270606692913386
21
0.4308466535433071
0
LINE
8
BLACK
6
CONTINUOUS
10
2.7270606692913386
20
0.4308466535433071
11
2.7291162204724411
21
0.4272863385826772
0
LINE
8
BLACK
6
CONTINUOUS
10
2.7291162204724411
20
0.4272863385826772
11
2.7301802362204723
21
0.4233153543307087
0
LINE
8
BLACK
6
CONTINUOUS
10
2.7301802362204723
20
0.4233153543307087
11
2.7301802362204723
21
0.4192043307086614
0
LINE
8
BLACK
6
CONTINUOUS
10
2.7301802362204723
20
0.4192043307086614
11
2.7291162204724411
21
0.4152333464566929
0
LINE
8
BLACK
6
CONTINUOUS
10
2.7291162204724411
20
0.4152333464566929
11
2.7270606692913386
21
0.411673031496063
0
LINE
8
BLACK
6
CONTINUOUS
10
2.7270606692913386
20
0.411673031496063
11
2.7241537401574805
21
0.4087661023622047
0
LINE
8
BLACK
6
CONTINUOUS
10
2.7241537401574805
20
0.4087661023622047
11
2.7205934251968502
21
0.4067105511811023
0
LINE
8
BLACK
6
CONTINUOUS
10
2.7205934251968502
20
0.4067105511811023
11
2.716622440944882
21
0.4056465354330708
0
LINE
8
BLACK
6
CONTINUOUS
10
2.716622440944882
20
0.4056465354330708
11
2.7145669291338583
21
0.405511811023622
0
LINE
8
BLACK
6
CONTINUOUS
10
2.7145669291338583
20
0.405511811023622
11
2.6397637795275588
21
0.405511811023622
0
LINE
8
BLACK
6
CONTINUOUS
10
2.6397637795275588
20
0.405511811023622
11
2.6377082677165355
21
0.4056465354330708
0
LINE
8
BLACK
6
CONTINUOUS
10
2.6377082677165355
20
0.4056465354330708
11
2.6337372834645669
21
0.4067105511811023
0
LINE
8
BLACK
6
CONTINUOUS
10
2.6337372834645669
20
0.4067105511811023
11
2.6301769685039371
21
0.4087661023622047
0
LINE
8
BLACK
6
CONTINUOUS
10
2.6301769685039371
20
0.4087661023622047
11
2.6272700393700785
21
0.411673031496063
0
LINE
8
BLACK
6
CONTINUOUS
10
2.6272700393700785
20
0.411673031496063
11
2.6252144881889765
21
0.4152333464566929
0
LINE
8
BLACK
6
CONTINUOUS
10
2.6252144881889765
20
0.4152333464566929
11
2.6241504724409448
21
0.4192043307086614
0
LINE
8
BLACK
6
CONTINUOUS
10
2.6241504724409448
20
0.4192043307086614
11
2.6241504724409448
21
0.4233153543307087
0
LINE
8
BLACK
6
CONTINUOUS
10
2.6241504724409448
20
0.4233153543307087
11
2.6252144881889765
21
0.4272863385826772
0
LINE
8
BLACK
6
CONTINUOUS
10
2.6252144881889765
20
0.4272863385826772
11
2.6272700393700785
21
0.4308466535433071
0
LINE
8
BLACK
6
CONTINUOUS
10
2.6272700393700785
20
0.4308466535433071
11
2.6301769685039371
21
0.4337535826771654
0
LINE
8
BLACK
6
CONTINUOUS
10
2.6301769685039371
20
0.4337535826771654
11
2.6337372834645669
21
0.4358091338582677
0
LINE
8
BLACK
6
CONTINUOUS
10
2.6337372834645669
20
0.4358091338582677
11
2.6377082677165355
21
0.4368731496062992
0
LINE
8
BLACK
6
CONTINUOUS
10
2.6377082677165355
20
0.4368731496062992
11
2.6397637795275588
21
0.437007874015748
0
LINE
8
BLACK
6
CONTINUOUS
10
2.6397637795275588
20
0.437007874015748
11
2.7145669291338583
21
0.437007874015748
0
LINE
8
BLACK
6
CONTINUOUS
10
2.7145669291338583
20
0.437007874015748
11
2.716622440944882
21
0.4368731496062992
0
LINE
8
BLACK
6
CONTINUOUS
10
2.716622440944882
20
0.7597077952755905
11
2.7205934251968502
21
0.758643779527559
0
LINE
8
BLACK
6
CONTINUOUS
10
2.7205934251968502
20
0.758643779527559
11
2.7241537401574805
21
0.7565882283464567
0
LINE
8
BLACK
6
CONTINUOUS
10
2.7241537401574805
20
0.7565882283464567
11
2.7270606692913386
21
0.7536812992125984
0
LINE
8
BLACK
6
CONTINUOUS
10
2.7270606692913386
20
0.7536812992125984
11
2.7291162204724411
21
0.7501209842519685
0
LINE
8
BLACK
6
CONTINUOUS
10
2.7291162204724411
20
0.7501209842519685
11
2.7301802362204723
21
0.74615
0
LINE
8
BLACK
6
CONTINUOUS
10
2.7301802362204723
20
0.74615
11
2.7301802362204723
21
0.7420389763779527
0
LINE
8
BLACK
6
CONTINUOUS
10
2.7301802362204723
20
0.7420389763779527
11
2.7291162204724411
21
0.7380679921259843
0
LINE
8
BLACK
6
CONTINUOUS
10
2.7291162204724411
20
0.7380679921259843
11
2.7270606692913386
21
0.7345076771653544
0
LINE
8
BLACK
6
CONTINUOUS
10
2.7270606692913386
20
0.7345076771653544
11
2.7241537401574805
21
0.731600748031496
0
LINE
8
BLACK
6
CONTINUOUS
10
2.7241537401574805
20
0.731600748031496
11
2.7205934251968502
21
0.7295451968503937
0
LINE
8
BLACK
6
CONTINUOUS
10
2.7205934251968502
20
0.7295451968503937
11
2.716622440944882
21
0.7284811811023622
0
LINE
8
BLACK
6
CONTINUOUS
10
2.716622440944882
20
0.7284811811023622
11
2.7145669291338583
21
0.7283464566929134
0
LINE
8
BLACK
6
CONTINUOUS
10
2.7145669291338583
20
0.7283464566929134
11
2.6397637795275588
21
0.7283464566929134
0
LINE
8
BLACK
6
CONTINUOUS
10
2.6397637795275588
20
0.7283464566929134
11
2.6377082677165355
21
0.7284811811023622
0
LINE
8
BLACK
6
CONTINUOUS
10
2.6377082677165355
20
0.7284811811023622
11
2.6337372834645669
21
0.7295451968503937
0
LINE
8
BLACK
6
CONTINUOUS
10
2.6337372834645669
20
0.7295451968503937
11
2.6301769685039371
21
0.731600748031496
0
LINE
8
BLACK
6
CONTINUOUS
10
2.6301769685039371
20
0.731600748031496
11
2.6272700393700785
21
0.7345076771653544
0
LINE
8
BLACK
6
CONTINUOUS
10
2.6272700393700785
20
0.7345076771653544
11
2.6252144881889765
21
0.7380679921259843
0
LINE
8
BLACK
6
CONTINUOUS
10
2.6252144881889765
20
0.7380679921259843
11
2.6241504724409448
21
0.7420389763779527
0
LINE
8
BLACK
6
CONTINUOUS
10
2.6241504724409448
20
0.7420389763779527
11
2.6241504724409448
21
0.74615
0
LINE
8
BLACK
6
CONTINUOUS
10
2.6241504724409448
20
0.74615
11
2.6252144881889765
21
0.7501209842519685
0
LINE
8
BLACK
6
CONTINUOUS
10
2.6252144881889765
20
0.7501209842519685
11
2.6272700393700785
21
0.7536812992125984
0
LINE
8
BLACK
6
CONTINUOUS
10
2.6272700393700785
20
0.7536812992125984
11
2.6301769685039371
21
0.7565882283464567
0
LINE
8
BLACK
6
CONTINUOUS
10
2.6301769685039371
20
0.7565882283464567
11
2.6337372834645669
21
0.758643779527559
0
LINE
8
BLACK
6
CONTINUOUS
10
2.6337372834645669
20
0.758643779527559
11
2.6377082677165355
21
0.7597077952755905
0
LINE
8
BLACK
6
CONTINUOUS
10
2.6377082677165355
20
0.7597077952755905
11
2.6397637795275588
21
0.7598425196850394
0
LINE
8
BLACK
6
CONTINUOUS
10
2.6397637795275588
20
0.7598425196850394
11
2.7145669291338583
21
0.7598425196850394
0
LINE
8
BLACK
6
CONTINUOUS
10
2.7145669291338583
20
0.7598425196850394
11
2.716622440944882
21
0.7597077952755905
0
CIRCLE
8
BLACK
10
2.0275590551181102
20
3.9763779527559056
40
0.026
0
CIRCLE
8
BLACK
10
1.8307086614173227
20
3.9763779527559056
40
0.026
0
CIRCLE
8
BLACK
10
0.7459622440944882
20
2.3425196850393699
40
0.0295275590551181
0
CIRCLE
8
BLACK
10
1.0609228740157479
20
2.3425196850393699
40
0.0295275590551181
0
CIRCLE
8
BLACK
10
1.0609228740157479
20
2.6574803149606296
40
0.0295275590551181
0
CIRCLE
8
BLACK
10
0.7459622440944882
20
2.6574803149606296
40
0.0295275590551181
0
CIRCLE
8
BLACK
10
0.4703716929133858
20
2.3839590157480313
40
0.0295275590551181
0
CIRCLE
8
BLACK
10
0.5864126771653543
20
2.1829701181102363
40
0.0295275590551181
0
CIRCLE
8
BLACK
10
0.7874015748031495
20
2.0669291338582676
40
0.0295275590551181
0
CIRCLE
8
BLACK
10
1.0194835433070866
20
2.0669291338582676
40
0.0295275590551181
0
CIRCLE
8
BLACK
10
1.2204724409448819
20
2.1829701181102363
40
0.0295275590551181
0
CIRCLE
8
BLACK
10
1.3365134251968505
20
2.3839590157480313
40
0.0295275590551181
0
CIRCLE
8
BLACK
10
1.3365134251968505
20
2.6160409842519683
40
0.0295275590551181
0
CIRCLE
8
BLACK
10
1.2204724409448819
20
2.8170298818897637
40
0.0295275590551181
0
CIRCLE
8
BLACK
10
1.0194835433070866
20
2.9330708661417324
40
0.0295275590551181
0
CIRCLE
8
BLACK
10
0.7874015748031495
20
2.9330708661417324
40
0.0295275590551181
0
CIRCLE
8
BLACK
10
0.5864126771653543
20
2.8170298818897637
40
0.0295275590551181
0
CIRCLE
8
BLACK
10
0.4703716929133858
20
2.6160409842519683
40
0.0295275590551181
0
CIRCLE
8
BLACK
10
0.1720472440944882
20
4.0925196850393704
40
0.062992125984252
0
CIRCLE
8
BLACK
10
3.8309842519685038
20
3.7763779527559054
40
0.026
0
CIRCLE
8
BLACK
10
3.6341338582677163
20
3.7763779527559054
40
0.026
0
CIRCLE
8
BLACK
10
3.82755905511811
20
3.3763779527559055
40
0.026
0
CIRCLE
8
BLACK
10
3.630708661417323
20
3.3763779527559055
40
0.026
0
CIRCLE
8
BLACK
10
0.5875590551181102
20
3.9763779527559056
40
0.026
0
CIRCLE
8
BLACK
10
0.3907086614173228
20
3.9763779527559056
40
0.026
0
CIRCLE
8
BLACK
10
2.7475590551181104
20
3.5763779527559056
40
0.026
0
CIRCLE
8
BLACK
10
2.5507086614173229
20
3.5763779527559056
40
0.026
0
CIRCLE
8
BLACK
10
3.4675590551181101
20
3.9763779527559056
40
0.026
0
CIRCLE
8
BLACK
10
3.2707086614173226
20
3.9763779527559056
40
0.026
0
CIRCLE
8
BLACK
10
1.6675590551181101
20
3.3763779527559055
40
0.026
0
CIRCLE
8
BLACK
10
1.4707086614173228
20
3.3763779527559055
40
0.026
0
CIRCLE
8
BLACK
10
0.9475590551181102
20
3.3763779527559055
40
0.026
0
CIRCLE
8
BLACK
10
0.7507086614173228
20
3.3763779527559055
40
0.026
  0
ENDSEC
  0
EOF
